<svg width="20" height="22" viewBox="0 0 20 22" fill="none" xmlns="http://www.w3.org/2000/svg">
<path fill-rule="evenodd" clip-rule="evenodd" d="M5.5214 16.4917H10.0098C10.3481 16.4917 10.6287 16.2083 10.6287 15.8667C10.6287 15.525 10.3481 15.25 10.0098 15.25H5.5214C5.18312 15.25 4.90259 15.525 4.90259 15.8667C4.90259 16.2083 5.18312 16.4917 5.5214 16.4917ZM8.31018 11.084H5.5214C5.18312 11.084 4.90259 11.3673 4.90259 11.709C4.90259 12.0507 5.18312 12.3257 5.5214 12.3257H8.31018C8.64846 12.3257 8.92899 12.0507 8.92899 11.709C8.92899 11.3673 8.64846 11.084 8.31018 11.084ZM14.1984 10.3547C14.3923 10.3524 14.6035 10.35 14.7954 10.35C15.0016 10.35 15.1667 10.5167 15.1667 10.725V17.425C15.1667 19.4917 13.5083 21.1667 11.462 21.1667H4.89439C2.74917 21.1667 1 19.4083 1 17.2417V8.25833C1 6.19167 2.66667 4.5 4.72112 4.5H9.12706C9.34158 4.5 9.5066 4.675 9.5066 4.88333V7.56667C9.5066 9.09167 10.7525 10.3417 12.2624 10.35C12.6151 10.35 12.926 10.3526 13.1981 10.3549C13.4098 10.3567 13.598 10.3583 13.764 10.3583C13.8815 10.3583 14.0337 10.3566 14.1984 10.3547ZM14.426 9.13806C13.7478 9.14056 12.9483 9.13806 12.3732 9.13222C11.4606 9.13222 10.709 8.37306 10.709 7.45139V5.25472C10.709 4.89556 11.1405 4.71722 11.3872 4.97639C11.8337 5.44532 12.4473 6.08991 13.0582 6.73155C13.6674 7.37156 14.2739 8.00864 14.709 8.46556C14.9499 8.71806 14.7733 9.13722 14.426 9.13806Z" fill="#3B82F6"/>
<rect x="4" y="2.5" width="13" height="16" rx="2" fill="#FAFCFF"/>
<path fill-rule="evenodd" clip-rule="evenodd" d="M7.4379 14.16H11.9264C12.2646 14.16 12.5452 13.8766 12.5452 13.535C12.5452 13.1933 12.2646 12.9183 11.9264 12.9183H7.4379C7.09962 12.9183 6.81909 13.1933 6.81909 13.535C6.81909 13.8766 7.09962 14.16 7.4379 14.16ZM10.2267 8.75163H7.4379C7.09962 8.75163 6.81909 9.03496 6.81909 9.37663C6.81909 9.71829 7.09962 9.99329 7.4379 9.99329H10.2267C10.565 9.99329 10.8455 9.71829 10.8455 9.37663C10.8455 9.03496 10.565 8.75163 10.2267 8.75163ZM16.1149 8.02264C16.3088 8.02041 16.52 8.01797 16.7119 8.01797C16.9182 8.01797 17.0832 8.18463 17.0832 8.39297V15.093C17.0832 17.1596 15.4248 18.8346 13.3786 18.8346H6.81089C4.66568 18.8346 2.9165 17.0763 2.9165 14.9096V5.9263C2.9165 3.85964 4.58317 2.16797 6.63763 2.16797H11.0436C11.2581 2.16797 11.4231 2.34297 11.4231 2.5513V5.23464C11.4231 6.75964 12.669 8.00964 14.1789 8.01797C14.5316 8.01797 14.8425 8.0206 15.1146 8.02291C15.3263 8.02471 15.5145 8.0263 15.6805 8.0263C15.798 8.0263 15.9502 8.02454 16.1149 8.02264ZM16.3424 6.80505C15.6642 6.80755 14.8647 6.80505 14.2896 6.79921C13.3771 6.79921 12.6254 6.04005 12.6254 5.11838V2.92171C12.6254 2.56255 13.057 2.38421 13.3037 2.64338C13.7502 3.11233 14.3638 3.75694 14.9747 4.3986C15.5839 5.03859 16.1904 5.67564 16.6254 6.13255C16.8664 6.38505 16.6898 6.80421 16.3424 6.80505Z" fill="#3B82F6"/>
<path d="M16.1149 8.02264L16.1132 7.87265L16.1132 7.87265L16.1149 8.02264ZM14.1789 8.01797L14.1781 8.16797H14.1789V8.01797ZM15.1146 8.02291L15.1159 7.87292L15.1159 7.87292L15.1146 8.02291ZM14.2896 6.79921L14.2912 6.64921H14.2896V6.79921ZM16.3424 6.80505L16.3421 6.65505L16.3419 6.65505L16.3424 6.80505ZM13.3037 2.64338L13.195 2.7468L13.195 2.74682L13.3037 2.64338ZM14.9747 4.3986L14.866 4.50202L14.866 4.50202L14.9747 4.3986ZM16.6254 6.13255L16.5168 6.23599L16.5169 6.2361L16.6254 6.13255ZM11.9264 14.01H7.4379V14.31H11.9264V14.01ZM12.3952 13.535C12.3952 13.7952 12.1804 14.01 11.9264 14.01V14.31C12.3489 14.31 12.6952 13.9581 12.6952 13.535H12.3952ZM11.9264 13.0683C12.183 13.0683 12.3952 13.2773 12.3952 13.535H12.6952C12.6952 13.1092 12.3463 12.7683 11.9264 12.7683V13.0683ZM7.4379 13.0683H11.9264V12.7683H7.4379V13.0683ZM6.96909 13.535C6.96909 13.2773 7.18125 13.0683 7.4379 13.0683V12.7683C7.01799 12.7683 6.66909 13.1092 6.66909 13.535H6.96909ZM7.4379 14.01C7.18387 14.01 6.96909 13.7952 6.96909 13.535H6.66909C6.66909 13.9581 7.01537 14.31 7.4379 14.31V14.01ZM7.4379 8.90163H10.2267V8.60163H7.4379V8.90163ZM6.96909 9.37663C6.96909 9.11639 7.18387 8.90163 7.4379 8.90163V8.60163C7.01537 8.60163 6.66909 8.95353 6.66909 9.37663H6.96909ZM7.4379 9.84329C7.18125 9.84329 6.96909 9.63424 6.96909 9.37663H6.66909C6.66909 9.80235 7.01799 10.1433 7.4379 10.1433V9.84329ZM10.2267 9.84329H7.4379V10.1433H10.2267V9.84329ZM10.6955 9.37663C10.6955 9.63424 10.4833 9.84329 10.2267 9.84329V10.1433C10.6466 10.1433 10.9955 9.80235 10.9955 9.37663H10.6955ZM10.2267 8.90163C10.4807 8.90163 10.6955 9.11639 10.6955 9.37663H10.9955C10.9955 8.95353 10.6492 8.60163 10.2267 8.60163V8.90163ZM16.7119 7.86797C16.519 7.86797 16.3069 7.87042 16.1132 7.87265L16.1166 8.17263C16.3108 8.17039 16.521 8.16797 16.7119 8.16797V7.86797ZM17.2332 8.39297C17.2332 8.1032 17.0024 7.86797 16.7119 7.86797V8.16797C16.8339 8.16797 16.9332 8.26607 16.9332 8.39297H17.2332ZM17.2332 15.093V8.39297H16.9332V15.093H17.2332ZM13.3786 18.9846C15.509 18.9846 17.2332 17.2411 17.2332 15.093H16.9332C16.9332 17.0782 15.3405 18.6846 13.3786 18.6846V18.9846ZM6.81089 18.9846H13.3786V18.6846H6.81089V18.9846ZM2.7665 14.9096C2.7665 17.1581 4.58184 18.9846 6.81089 18.9846V18.6846C4.74951 18.6846 3.0665 16.9945 3.0665 14.9096H2.7665ZM2.7665 5.9263V14.9096H3.0665V5.9263H2.7665ZM6.63763 2.01797C4.49871 2.01797 2.7665 3.77842 2.7665 5.9263H3.0665C3.0665 3.94085 4.66763 2.31797 6.63763 2.31797V2.01797ZM11.0436 2.01797H6.63763V2.31797H11.0436V2.01797ZM11.5731 2.5513C11.5731 2.26368 11.3444 2.01797 11.0436 2.01797V2.31797C11.1717 2.31797 11.2731 2.42226 11.2731 2.5513H11.5731ZM11.5731 5.23464V2.5513H11.2731V5.23464H11.5731ZM14.1797 7.86797C12.7527 7.86009 11.5731 6.67745 11.5731 5.23464H11.2731C11.2731 6.84182 12.5853 8.15918 14.1781 8.16797L14.1797 7.86797ZM15.1159 7.87292C14.8438 7.87061 14.5323 7.86797 14.1789 7.86797V8.16797C14.5308 8.16797 14.8412 8.1706 15.1133 8.17291L15.1159 7.87292ZM15.6805 7.8763C15.5152 7.8763 15.3277 7.87471 15.1159 7.87292L15.1133 8.17291C15.3248 8.1747 15.5137 8.1763 15.6805 8.1763V7.8763ZM16.1132 7.87265C15.9482 7.87456 15.7969 7.8763 15.6805 7.8763V8.1763C15.799 8.1763 15.9523 8.17453 16.1166 8.17263L16.1132 7.87265ZM14.2881 6.94921C14.864 6.95505 15.6641 6.95755 16.343 6.95505L16.3419 6.65505C15.6643 6.65755 14.8655 6.65505 14.2912 6.64922L14.2881 6.94921ZM12.4754 5.11838C12.4754 6.12148 13.2929 6.94921 14.2896 6.94921V6.64921C13.4613 6.64921 12.7754 5.95862 12.7754 5.11838H12.4754ZM12.4754 2.92171V5.11838H12.7754V2.92171H12.4754ZM13.4123 2.53996C13.0685 2.17881 12.4754 2.43253 12.4754 2.92171H12.7754C12.7754 2.69257 13.0454 2.58962 13.195 2.7468L13.4123 2.53996ZM15.0833 4.29517C14.4725 3.65351 13.8588 3.0089 13.4123 2.53994L13.195 2.74682C13.6416 3.21576 14.2552 3.86036 14.866 4.50202L15.0833 4.29517ZM16.7341 6.02911C16.299 5.57221 15.6926 4.93517 15.0833 4.29517L14.866 4.50202C15.4753 5.14201 16.0817 5.77907 16.5168 6.23599L16.7341 6.02911ZM16.3428 6.95505C16.8243 6.95389 17.0642 6.37509 16.734 6.029L16.5169 6.2361C16.6685 6.39501 16.5553 6.65454 16.3421 6.65505L16.3428 6.95505Z" fill="white"/>
</svg>
