<svg width="42" height="43" viewBox="0 0 42 43" fill="none" xmlns="http://www.w3.org/2000/svg">
<rect y="0.5" width="42" height="42" rx="5" fill="white"/>
<path fill-rule="evenodd" clip-rule="evenodd" d="M12.5 19.8178C12.5 15.2179 16.3439 11.5 20.9934 11.5C25.6561 11.5 29.5 15.2179 29.5 19.8178C29.5 22.1357 28.657 24.2876 27.2695 26.1116C25.7388 28.1235 23.8522 29.8765 21.7285 31.2524C21.2425 31.5704 20.8039 31.5944 20.2704 31.2524C18.1347 29.8765 16.2481 28.1235 14.7305 26.1116C13.342 24.2876 12.5 22.1357 12.5 19.8178ZM18.1942 20.0768C18.1942 21.6177 19.4517 22.8297 20.9934 22.8297C22.5362 22.8297 23.8058 21.6177 23.8058 20.0768C23.8058 18.5478 22.5362 17.2768 20.9934 17.2768C19.4517 17.2768 18.1942 18.5478 18.1942 20.0768Z" fill="#3B82F6"/>
</svg>
