<svg width="45" height="45" viewBox="0 0 45 45" fill="none" xmlns="http://www.w3.org/2000/svg">
<path fill-rule="evenodd" clip-rule="evenodd" d="M35.0755 16.4951C35.0755 18.8499 35.6979 20.2379 37.0676 21.8374C38.1056 23.0158 38.4373 24.5284 38.4373 26.1695C38.4373 27.8086 37.8987 29.3647 36.8197 30.6281C35.4072 32.1426 33.4151 33.1095 31.3821 33.2775C28.4359 33.5287 25.4879 33.7402 22.5007 33.7402C19.5116 33.7402 16.5655 33.6137 13.6193 33.2775C11.5844 33.1095 9.59229 32.1426 8.18163 30.6281C7.10267 29.3647 6.56226 27.8086 6.56226 26.1695C6.56226 24.5284 6.89582 23.0158 7.93192 21.8374C9.34445 20.2379 9.92586 18.8499 9.92586 16.4951V15.6963C9.92586 12.5426 10.7122 10.4804 12.3316 8.46169C14.7393 5.51763 18.5985 3.75195 22.4168 3.75195H22.5845C26.4848 3.75195 30.469 5.60261 32.8356 8.6732C34.3711 10.6504 35.0755 12.6257 35.0755 15.6963V16.4951ZM17.013 37.6155C17.013 36.6713 17.8795 36.2388 18.6808 36.0537C19.6181 35.8555 25.3297 35.8555 26.2671 36.0537C27.0684 36.2388 27.9349 36.6713 27.9349 37.6155C27.8883 38.5144 27.3609 39.3113 26.6323 39.8174C25.6875 40.5539 24.5787 41.0203 23.4196 41.1884C22.7786 41.2715 22.1487 41.2734 21.5301 41.1884C20.3691 41.0203 19.2603 40.5539 18.3174 39.8155C17.5869 39.3113 17.0596 38.5144 17.013 37.6155Z" fill="white"/>
</svg>
