<svg width="100" height="100" viewBox="0 0 100 100" fill="none" xmlns="http://www.w3.org/2000/svg">
<rect width="100" height="100" rx="10" fill="#3B82F6"/>
<path fill-rule="evenodd" clip-rule="evenodd" d="M43.7262 29.7617H56.2131C61.6977 29.7617 66.1298 31.9272 66.1905 37.432V68.1534C66.1905 68.4974 66.1096 68.8415 65.9477 69.1451C65.6846 69.6308 65.2393 69.995 64.6929 70.157C64.1667 70.3189 63.5798 70.2379 63.0941 69.9546L49.9798 63.3974L36.8453 69.9546C36.5437 70.1145 36.1977 70.2177 35.8536 70.2177C34.7203 70.2177 33.8096 69.2867 33.8096 68.1534V37.432C33.8096 31.9272 38.262 29.7617 43.7262 29.7617ZM42.3499 45.183H57.5892C58.4595 45.183 59.1678 44.4726 59.1678 43.5842C59.1678 42.6937 58.4595 41.9854 57.5892 41.9854H42.3499C41.4797 41.9854 40.7714 42.6937 40.7714 43.5842C40.7714 44.4726 41.4797 45.183 42.3499 45.183Z" fill="white"/>
</svg>
