<svg width="20" height="20" viewBox="0 0 20 20" fill="none" xmlns="http://www.w3.org/2000/svg">
<path fill-rule="evenodd" clip-rule="evenodd" d="M6.74829 10C6.74829 11.7778 8.20358 13.2243 10.0003 13.2243C11.7889 13.2243 13.2442 11.7778 13.2442 10C13.2442 8.21418 11.7889 6.76772 10.0003 6.76772C8.20358 6.76772 6.74829 8.21418 6.74829 10ZM14.7808 5.03842C16.2036 6.13741 17.415 7.74549 18.2849 9.75762C18.3499 9.91115 18.3499 10.0889 18.2849 10.2344C16.545 14.2586 13.4475 16.6667 10.0003 16.6667H9.9922C6.55317 16.6667 3.45561 14.2586 1.71577 10.2344C1.65073 10.0889 1.65073 9.91115 1.71577 9.75762C3.45561 5.73337 6.55317 3.33337 9.9922 3.33337H10.0003C11.7239 3.33337 13.358 3.93135 14.7808 5.03842ZM10.0013 12.0104C11.1151 12.0104 12.0257 11.1053 12.0257 9.99826C12.0257 8.88311 11.1151 7.97806 10.0013 7.97806C9.90374 7.97806 9.80618 7.98614 9.71675 8.0023C9.68423 8.89119 8.95252 9.6023 8.05008 9.6023H8.00943C7.98504 9.7316 7.96878 9.86089 7.96878 9.99826C7.96878 11.1053 8.87935 12.0104 10.0013 12.0104Z" fill="#AAAABF"/>
</svg>
