<svg width="100" height="100" viewBox="0 0 100 100" fill="none" xmlns="http://www.w3.org/2000/svg">
<rect width="100" height="100" rx="10" fill="#3B82F6"/>
<path fill-rule="evenodd" clip-rule="evenodd" d="M50.6613 30.186C50.9845 29.8959 51.412 29.7439 51.8496 29.7634C61.1 30.0403 68.831 36.7556 70.2322 45.7308C70.2411 45.7844 70.2411 45.8391 70.2322 45.8927C70.2623 46.3173 70.1188 46.7363 69.8333 47.0569C69.5479 47.3775 69.144 47.5732 68.711 47.6009L53.1692 48.6258C52.6552 48.6714 52.1455 48.5023 51.7652 48.16C51.3849 47.8177 51.1694 47.334 51.1715 46.8277L50.1268 31.5615V31.3098C50.1458 30.8804 50.3381 30.4761 50.6613 30.186ZM49.5948 52.6178L63.0128 51.7907H63.1573C63.7357 51.8001 64.2867 52.0347 64.6888 52.4428C65.091 52.8508 65.3114 53.3989 65.3016 53.9664C64.7708 61.7016 59.0997 68.1646 51.3821 69.8297C43.6645 71.4947 35.753 67.9621 31.9637 61.159C30.8494 59.1996 30.1453 57.0416 29.8926 54.8116C29.7947 54.1508 29.7517 53.4833 29.7644 52.8156C29.7899 44.5904 35.646 37.4909 43.84 35.7513C44.8319 35.5656 45.8264 36.0609 46.2592 36.9561C46.473 37.2784 46.5284 37.6731 46.5536 38.0591C46.6955 40.2328 46.8417 42.3885 46.9874 44.5358C47.1127 46.3828 47.2376 48.2237 47.3589 50.0645C47.3526 50.4981 47.4208 50.9297 47.5605 51.3412C47.8894 52.1507 48.7078 52.6643 49.5948 52.6178Z" fill="white"/>
</svg>
