<svg width="70" height="71" viewBox="0 0 70 71" fill="none" xmlns="http://www.w3.org/2000/svg">
<rect y="0.5" width="70" height="70" rx="5" fill="white"/>
<path d="M34.9941 35.4951V35.501L35 35.4951H34.9941Z" fill="#7B3FE4"/>
<path d="M35 38.7589C36.4826 38.7589 37.931 38.724 39.3278 38.6602V55.3089H30.6665V38.6602C32.069 38.724 33.5173 38.7589 35 38.7589Z" fill="#3B82F6"/>
<path d="M51.1892 15.6934V24.4736H39.3279V35.5011H30.6723V24.4736H18.811V15.6934H51.1892Z" fill="#3B82F6"/>
<path d="M56.2324 33.9335C56.2324 36.2621 48.9794 38.2016 39.3278 38.6604C37.931 38.7242 36.4826 38.7591 35 38.7591C33.5173 38.7591 32.069 38.7242 30.6722 38.6604C21.0206 38.2074 13.7676 36.2621 13.7676 33.9335C13.7676 31.6048 21.0206 29.6653 30.6722 29.2065V29.6479C22.3945 30.0369 16.2291 31.5235 16.2291 33.3063C16.2291 35.0832 22.3945 36.5757 30.6722 36.9647C32.0461 37.0286 33.4773 37.0634 34.9542 37.0634C36.4598 37.0634 37.931 37.0286 39.3335 36.9589C47.5597 36.564 53.6793 35.0774 53.6793 33.3063C53.6793 31.5352 47.5654 30.0486 39.3335 29.6537V29.2065C48.9794 29.6653 56.2324 31.6048 56.2324 33.9335Z" fill="#3B82F6"/>
</svg>
