<svg width="70" height="71" viewBox="0 0 70 71" fill="none" xmlns="http://www.w3.org/2000/svg">
<rect y="0.5" width="70" height="70" rx="5" fill="white"/>
<path d="M58.6082 29.2145C58.6082 29.2088 58.614 29.2031 58.614 29.1917C58.6197 29.1745 58.6197 29.1573 58.6254 29.1401C58.6254 29.1401 58.6254 29.1401 58.6254 29.1344C58.6254 29.1172 58.6311 29.0943 58.6311 29.0772C58.6311 29.0714 58.6311 29.0657 58.6311 29.06C58.6311 29.0485 58.6311 29.0314 58.6311 29.0199C58.6311 29.0142 58.6311 29.0085 58.6311 29.0027C58.6311 28.9856 58.6311 28.9741 58.6254 28.9569C58.6254 28.9512 58.6254 28.9455 58.6254 28.9455C58.6254 28.9283 58.6197 28.9111 58.614 28.8882C58.614 28.8825 58.614 28.8768 58.6082 28.8711C58.6025 28.8596 58.6025 28.8425 58.5968 28.831C58.5968 28.8253 58.5911 28.8196 58.5911 28.8081C58.5853 28.7967 58.5853 28.7852 58.5796 28.7738C58.5796 28.768 58.5739 28.7623 58.5739 28.7566C58.5682 28.7394 58.5567 28.7222 58.551 28.7051C58.551 28.6993 58.5453 28.6993 58.5453 28.6936C58.5395 28.6822 58.5281 28.665 58.5224 28.6535C58.5166 28.6478 58.5166 28.6421 58.5109 28.6364C58.5052 28.6249 58.4937 28.6135 58.488 28.602C58.4823 28.5963 58.4823 28.5906 58.4766 28.5848C58.4651 28.5677 58.4537 28.5562 58.4365 28.539L50.7999 20.3014C50.7885 20.29 50.777 20.2728 50.7599 20.2613L50.7541 20.2556C50.7427 20.2442 50.7255 20.2327 50.7141 20.2213C50.6854 20.1984 50.6511 20.1755 50.6167 20.1583C50.5652 20.1297 50.5137 20.1068 50.4565 20.0953H50.4507C50.4336 20.0896 50.4164 20.0896 50.3992 20.0839L16.9277 14.1131C16.9219 14.1131 16.9162 14.1131 16.9105 14.1131C16.899 14.1131 16.8876 14.1074 16.8761 14.1074C16.8647 14.1074 16.859 14.1074 16.8475 14.1074C16.8361 14.1074 16.8303 14.1074 16.8189 14.1074C16.8075 14.1074 16.796 14.1074 16.7903 14.1074C16.7788 14.1074 16.7731 14.1074 16.7617 14.1074C16.7502 14.1074 16.7388 14.1074 16.733 14.1074C16.7216 14.1074 16.7159 14.1074 16.7044 14.1131C16.693 14.1131 16.6872 14.1189 16.6758 14.1189C16.6643 14.1189 16.6586 14.1246 16.6472 14.1246C16.6357 14.1246 16.63 14.1303 16.6185 14.1303C16.6071 14.1303 16.5956 14.136 16.5899 14.1418C16.5785 14.1418 16.5727 14.1475 16.5613 14.1532C16.5498 14.1589 16.5384 14.1589 16.5327 14.1647C16.5212 14.1704 16.5155 14.1704 16.5098 14.1761C16.4983 14.1818 16.4926 14.1876 16.4811 14.1876C16.4697 14.1933 16.464 14.199 16.4525 14.199C16.4411 14.2047 16.4354 14.2105 16.4296 14.2162C16.4182 14.2219 16.4125 14.2276 16.401 14.2334C16.3953 14.2391 16.3896 14.2391 16.3838 14.2448L16.3781 14.2505C16.3667 14.2563 16.3609 14.262 16.3495 14.2734C16.3438 14.2792 16.338 14.2849 16.3266 14.2906C16.3209 14.2963 16.3094 14.3078 16.3037 14.3135C16.298 14.3192 16.2922 14.3249 16.2865 14.3307C16.2808 14.3364 16.2693 14.3479 16.2636 14.3536C16.2579 14.3593 16.2522 14.365 16.2464 14.3765C16.2407 14.3822 16.235 14.3936 16.2293 14.3994C16.2235 14.4051 16.2178 14.4165 16.2121 14.4223C16.2064 14.428 16.2006 14.4394 16.1949 14.4452C16.1892 14.4566 16.1835 14.4623 16.1777 14.4738C16.172 14.4795 16.172 14.491 16.1663 14.4967C16.1606 14.5081 16.1549 14.5139 16.1491 14.5253C16.1491 14.5253 16.1491 14.531 16.1434 14.531C16.1377 14.5368 16.1377 14.5425 16.1377 14.5482C16.132 14.5597 16.1262 14.5654 16.1262 14.5768C16.1205 14.5883 16.1205 14.594 16.1148 14.6055C16.1091 14.6169 16.1091 14.6226 16.1033 14.6341C16.0976 14.6455 16.0976 14.657 16.0976 14.6627C16.0976 14.6742 16.0919 14.6799 16.0919 14.6913C16.0919 14.7028 16.0862 14.7142 16.0862 14.7257C16.0862 14.7371 16.0804 14.7429 16.0804 14.7543C16.0804 14.7657 16.0804 14.7772 16.0747 14.7829C16.0747 14.7944 16.0747 14.8001 16.0747 14.8115C16.0747 14.823 16.0747 14.8287 16.0747 14.8402C16.0747 14.8516 16.0747 14.8631 16.0747 14.8688C16.0747 14.8802 16.0747 14.886 16.0747 14.8974C16.0747 14.9089 16.0747 14.9203 16.0804 14.926C16.0804 14.9375 16.0804 14.9432 16.0862 14.9547C16.0862 14.9661 16.0919 14.9776 16.0919 14.9833C16.0919 14.9947 16.0976 15.0005 16.0976 15.0119C16.0976 15.0234 16.1033 15.0291 16.1033 15.0405C16.1091 15.052 16.1091 15.0634 16.1148 15.0749C16.1148 15.0806 16.1205 15.0863 16.1205 15.092L33.1912 60.2589C33.1969 60.2646 33.1969 60.276 33.2026 60.2818C33.2083 60.2932 33.2083 60.2989 33.2141 60.3104C33.2198 60.3161 33.2198 60.3218 33.2255 60.3276C33.2312 60.339 33.237 60.3505 33.2427 60.3619C33.2484 60.3676 33.2484 60.3734 33.2541 60.3791C33.2599 60.3905 33.2656 60.402 33.277 60.4134C33.2828 60.4192 33.2828 60.4249 33.2885 60.4306C33.2942 60.4421 33.3057 60.4535 33.3114 60.4592C33.3171 60.465 33.3228 60.4707 33.3228 60.4764C33.3286 60.4879 33.34 60.4936 33.3457 60.505C33.3515 60.5108 33.3572 60.5165 33.3629 60.5222C33.3686 60.5279 33.3801 60.5394 33.3858 60.5451C33.3915 60.5508 33.3972 60.5566 33.403 60.5623C33.4087 60.568 33.4201 60.5737 33.4259 60.5795C33.4316 60.5852 33.443 60.5909 33.4488 60.5966C33.4545 60.6023 33.4659 60.6081 33.4717 60.6138C33.4774 60.6195 33.4888 60.6252 33.4946 60.6252C33.506 60.631 33.5117 60.6367 33.5232 60.6424C33.5289 60.6481 33.5346 60.6481 33.5461 60.6539C33.5575 60.6596 33.569 60.6653 33.5804 60.671C33.5862 60.671 33.5919 60.6768 33.5919 60.6768H33.5976C33.6033 60.6768 33.6033 60.6825 33.6091 60.6825C33.6205 60.6882 33.632 60.6939 33.6434 60.6939C33.6491 60.6939 33.6491 60.6939 33.6549 60.6997C33.672 60.7054 33.6835 60.7111 33.7006 60.7111C33.7064 60.7111 33.7064 60.7111 33.7121 60.7111C33.7235 60.7168 33.7407 60.7168 33.7522 60.7168H33.7579C33.7751 60.7168 33.7922 60.7226 33.8037 60.7226C33.8094 60.7226 33.8094 60.7226 33.8151 60.7226C33.8323 60.7226 33.8495 60.7226 33.8667 60.7226C33.8781 60.7226 33.8953 60.7226 33.9067 60.7226C33.9067 60.7226 33.9067 60.7226 33.9125 60.7226C33.9239 60.7226 33.9354 60.7226 33.9525 60.7168C33.9525 60.7168 33.9525 60.7168 33.9583 60.7168C33.9754 60.7168 33.9926 60.7111 34.0098 60.7111C34.0155 60.7111 34.0212 60.7111 34.0212 60.7111C34.0384 60.7054 34.0556 60.7054 34.0727 60.6997C34.0785 60.6997 34.0785 60.6997 34.0842 60.6939C34.0956 60.6882 34.1128 60.6825 34.1243 60.6825C34.13 60.6825 34.1357 60.6768 34.1414 60.6768C34.1586 60.671 34.1758 60.6653 34.1872 60.6539C34.1872 60.6539 34.193 60.6539 34.193 60.6481C34.2044 60.6424 34.2216 60.6367 34.233 60.6252C34.2388 60.6252 34.2388 60.6195 34.2445 60.6195C34.2617 60.6081 34.2731 60.6024 34.2903 60.5909C34.3075 60.5795 34.3189 60.568 34.3304 60.5565C34.3361 60.5565 34.3361 60.5508 34.3418 60.5508C34.3532 60.5394 34.3647 60.5337 34.3761 60.5222L34.3819 60.5165C34.3933 60.505 34.4048 60.4936 34.4162 60.4764C34.4162 60.4707 34.4219 60.4707 34.4219 60.465C34.4277 60.4592 34.4334 60.4535 34.4391 60.4478L58.4594 29.4951L58.4651 29.4893C58.4766 29.4779 58.4823 29.4664 58.4937 29.4493C58.4995 29.4435 58.4995 29.4378 58.5052 29.4321C58.5109 29.4206 58.5224 29.4035 58.5281 29.392C58.5281 29.3863 58.5338 29.3863 58.5338 29.3806C58.5395 29.3634 58.551 29.3462 58.5567 29.329C58.5567 29.3233 58.5624 29.3176 58.5624 29.3119C58.5682 29.3061 58.5682 29.2947 58.5739 29.289C58.5739 29.2832 58.5739 29.2832 58.5796 29.2775C58.5796 29.2718 58.5853 29.2603 58.5853 29.2546C58.6025 29.2374 58.6025 29.226 58.6082 29.2145ZM18.479 17.2159L36.5858 32.5691L33.5232 56.9844L18.479 17.2159ZM50.2103 21.8184L56.4272 28.5333L39.7057 31.1552L50.2103 21.8184ZM37.3472 31.2926L28.1421 23.49L19.332 16.0194L48.6475 21.246L37.3472 31.2926ZM38.017 32.9012L56.1925 30.0561L34.9372 57.4424L38.017 32.9012Z" fill="#3B82F6"/>
</svg>
