<svg width="70" height="71" viewBox="0 0 70 71" fill="none" xmlns="http://www.w3.org/2000/svg">
<rect y="0.5" width="70" height="70" rx="5" fill="white"/>
<path fill-rule="evenodd" clip-rule="evenodd" d="M44.9172 24.2451C45.1967 24.3066 45.4682 24.3763 45.7315 24.453C45.8631 24.4914 45.9924 24.532 46.1194 24.5738C46.6285 24.7423 47.1014 24.941 47.5383 25.171C47.5382 25.1711 47.5382 25.1713 47.5382 25.1715C48.2693 25.5582 48.8968 26.032 49.4022 26.6057C51.0692 28.5005 51.3954 31.1981 50.7651 34.4289C49.2554 42.1604 44.0889 44.8336 37.4907 44.8336H36.4714C35.6653 44.8336 34.9791 45.4192 34.8533 46.2127L34.7706 46.6611L33.4868 54.7748L33.4204 55.121C33.2946 55.9145 32.6085 56.5 31.8023 56.5H24.991C24.3875 56.5 23.9262 55.961 24.0206 55.3661L26.545 39.4059C26.5483 39.3848 26.552 39.3639 26.556 39.3431L26.6091 39.004L28.7898 25.2151C28.876 24.6679 29.2267 24.2218 29.7008 23.9953C29.9151 23.8919 30.1551 23.835 30.4079 23.835H40.6675C41.8837 23.835 43.016 23.914 44.0528 24.0813C44.3487 24.1289 44.6376 24.1835 44.9172 24.2451Z" fill="#3B82F6" fill-opacity="0.6"/>
<path fill-rule="evenodd" clip-rule="evenodd" d="M28.1313 45.9764L29.2126 39.1382L29.1707 39.4058C29.3152 38.4984 30.0933 37.8293 31.0148 37.8293H34.8544C42.3974 37.8293 48.3036 34.7738 50.0289 25.9352C50.0801 25.6738 50.1244 25.4194 50.1628 25.1707C50.2913 24.3537 50.3553 23.6021 50.3513 22.9027C50.3395 20.8046 49.7164 19.1769 48.3875 17.667C48.3865 17.6659 48.3856 17.6648 48.3846 17.6637C46.4328 15.4494 42.9101 14.5 38.4028 14.5H25.3148H25.3136C24.5073 14.5 23.8063 15.0123 23.5469 15.7483C23.5098 15.8534 23.4818 15.9631 23.4637 16.0765L23.436 16.2515L18.0141 50.5435C18.0046 50.6035 18 50.663 18 50.7216C17.9996 51.3275 18.4941 51.84 19.1243 51.84H27.2043L28.1313 45.9764Z" fill="#3B82F6"/>
</svg>
