<svg width="70" height="71" viewBox="0 0 70 71" fill="none" xmlns="http://www.w3.org/2000/svg">
<rect y="0.5" width="70" height="70" rx="5" fill="white"/>
<path d="M47.8229 43.9664C47.8458 43.1249 47.7142 42.3006 47.4337 41.482C47.3192 41.1614 47.1875 40.8408 47.0215 40.5202C46.4834 39.4555 45.6877 38.6368 44.7488 37.9499C44.6172 37.8526 44.4855 37.761 44.3481 37.6694C43.9016 37.3717 43.4436 37.0912 42.9628 36.7878C42.9456 36.7764 42.9284 36.7649 42.9055 36.7535C43.2261 36.7191 43.5181 36.6905 43.81 36.6504C45.3556 36.4615 46.7696 35.9406 47.9947 34.9502C50.233 33.1413 51.0344 30.2332 50.1643 27.6342C49.9868 27.1076 49.7464 26.5981 49.4315 26.1058C48.6587 24.8979 47.6283 23.9877 46.4147 23.2893C46.1972 23.1633 45.9682 23.0431 45.7392 22.9286C45.5846 22.8542 45.5675 22.7798 45.6075 22.6252C46.0483 21.0338 46.4777 19.4367 46.9127 17.8452L46.9757 17.6162L41.9495 16.2481L40.6329 21.0911L37.4042 20.2152L38.7209 15.3722L33.7061 14.0098L32.3838 18.8814L24.7472 16.7976L23.6309 20.8907C23.9973 20.988 24.3522 21.0739 24.7014 21.1884C25.1479 21.3372 25.6002 21.4746 26.0238 21.675C26.5733 21.9326 26.8195 22.4478 26.7165 23.0546C26.6363 23.524 26.5333 23.9934 26.4073 24.4571C25.749 26.89 25.085 29.3173 24.4266 31.7502C23.9343 33.5706 23.4363 35.3853 22.944 37.2057C22.6234 38.3792 22.3085 39.5471 21.988 40.7206C21.8906 41.0812 21.7761 41.4419 21.6617 41.7968C21.364 42.6956 20.9003 43.0104 19.9672 42.8673C19.326 42.7643 18.6963 42.5753 18.0666 42.4208C17.9808 42.3979 17.8949 42.375 17.8033 42.3521L16.687 46.4452L24.335 48.5232L23.0127 53.3948L28.0331 54.7629L29.3498 49.9142L32.5727 50.7901L31.256 55.6331L36.2708 56.9955L37.7076 51.7232C37.8107 51.7289 37.8965 51.7289 37.9767 51.7347C39.4651 51.832 40.9363 51.6946 42.3445 51.1851C44.8347 50.2863 46.6208 48.6548 47.4508 46.0902C47.6798 45.3689 47.8058 44.6648 47.8229 43.9664ZM34.2786 24.5315C34.3359 24.543 34.3931 24.5487 34.4503 24.5659C35.996 24.9952 37.5416 25.4131 39.0758 25.8711C39.9059 26.1172 40.7245 26.4092 41.4572 26.8958C42.2816 27.4339 42.7338 28.1723 42.8884 28.9623C43.0143 29.6149 42.9284 30.3076 42.6765 30.9602C42.0755 32.5058 40.8332 33.2615 39.0529 33.2386C38.074 33.2271 37.1237 33.0325 36.1792 32.7921C35.1945 32.5402 34.2156 32.2711 33.2367 32.0021C32.9734 31.9277 32.7101 31.859 32.4467 31.7845C32.4124 31.7731 32.3838 31.7616 32.3265 31.7387L34.2786 24.5315ZM36.3051 46.199C35.5266 46.2734 34.748 46.1933 33.9924 46.0044C32.5784 45.6552 31.1702 45.2602 29.7676 44.8652C29.7562 44.8594 29.7447 44.8595 29.7333 44.8537C29.1322 44.6877 28.9834 44.4301 29.0921 43.8176C29.1666 43.3711 29.2696 42.9303 29.3898 42.4952C29.6875 41.3904 29.9852 40.2912 30.2829 39.1921C30.5462 38.2304 30.8095 37.2687 31.0671 36.307L31.1186 36.1066C31.2045 36.1238 31.256 36.1295 31.3076 36.1467C32.8933 36.5875 34.479 37.0168 36.0589 37.4748C36.8604 37.7095 37.6332 38.0186 38.343 38.4708C39.3391 39.1005 39.9402 39.9134 40.152 40.8809C40.2207 41.2015 40.2493 41.5449 40.2264 41.8999C40.2093 42.1975 40.1635 42.5067 40.089 42.8215C39.6368 44.6705 38.1255 46.0273 36.3051 46.199Z" fill="#3B82F6"/>
</svg>
