<svg width="70" height="71" viewBox="0 0 70 71" fill="none" xmlns="http://www.w3.org/2000/svg">
<rect y="0.5" width="70" height="70" rx="5" fill="white"/>
<path d="M34.479 32.0222C34.4465 34.4283 36.764 35.771 38.5099 36.5693C40.3036 37.3884 40.9061 37.9136 40.8993 38.6461C40.8856 39.7672 39.4684 40.2619 38.1419 40.2811C35.8278 40.3149 34.4825 39.6949 33.4127 39.2259L32.5792 42.8863C33.6523 43.3505 35.6395 43.7553 37.7003 43.7729C42.5373 43.7729 45.7021 41.5323 45.7192 38.0582C45.738 33.6493 39.2202 33.4051 39.2647 31.4344C39.2801 30.8369 39.8877 30.1992 41.2194 30.037C41.8783 29.9551 43.6978 29.8924 45.7603 30.7839L46.5698 27.2423C45.4607 26.8632 44.035 26.5002 42.26 26.5002C37.7071 26.5002 34.5047 28.7713 34.479 32.0222ZM54.3491 26.8054C53.4659 26.8054 52.7214 27.2889 52.3893 28.0309L45.4796 43.5128H50.3131L51.2751 41.0184H57.1818L57.7398 43.5128H62L58.2824 26.8054H54.3491ZM55.0252 31.3187L56.4202 37.5924H52.5998L55.0252 31.3187ZM28.6185 26.8054L24.8085 43.5128H29.4144L33.2227 26.8054H28.6185ZM21.8046 26.8054L17.0104 38.1771L15.0711 28.5079C14.8435 27.4286 13.9449 26.8054 12.947 26.8054H5.10954L5 27.2905C6.60891 27.6181 8.43691 28.1465 9.54432 28.7119C10.2221 29.0572 10.4155 29.3592 10.638 30.18L14.3112 43.5128H19.179L26.6416 26.8054H21.8046Z" fill="#3B82F6"/>
</svg>
