<svg width="14" height="14" viewBox="0 0 14 14" fill="none" xmlns="http://www.w3.org/2000/svg">
<path fill-rule="evenodd" clip-rule="evenodd" d="M4.29375 0.749512H9.7125C11.8313 0.749512 13.25 2.23701 13.25 4.44951V9.55639C13.25 11.7626 11.8313 13.2495 9.7125 13.2495H4.29375C2.175 13.2495 0.75 11.7626 0.75 9.55639V4.44951C0.75 2.23701 2.175 0.749512 4.29375 0.749512ZM8.88125 8.87451C9.09375 8.66264 9.09375 8.31889 8.88125 8.10639L7.76875 6.99389L8.88125 5.88076C9.09375 5.66889 9.09375 5.31889 8.88125 5.10639C8.66875 4.89326 8.325 4.89326 8.10625 5.10639L7 6.21826L5.8875 5.10639C5.66875 4.89326 5.325 4.89326 5.1125 5.10639C4.9 5.31889 4.9 5.66889 5.1125 5.88076L6.225 6.99389L5.1125 8.10014C4.9 8.31889 4.9 8.66264 5.1125 8.87451C5.21875 8.98076 5.3625 9.03764 5.5 9.03764C5.64375 9.03764 5.78125 8.98076 5.8875 8.87451L7 7.76889L8.1125 8.87451C8.21875 8.98764 8.35625 9.03764 8.49375 9.03764C8.6375 9.03764 8.775 8.98076 8.88125 8.87451Z" fill="white"/>
</svg>
