<svg width="100" height="100" viewBox="0 0 100 100" fill="none" xmlns="http://www.w3.org/2000/svg">
<rect width="100" height="100" rx="10" fill="#3B82F6"/>
<path d="M61.6086 57.1743C61.6086 58.8505 61.1667 60.4048 60.2829 61.8371C59.4295 63.239 58.1495 64.3971 56.4429 65.3114C54.7667 66.1952 52.7705 66.6829 50.4543 66.7743V70.4771H47.5286V66.7286C44.2981 66.4543 41.6924 65.4943 39.7114 63.8486C37.7305 62.1724 36.679 59.9019 36.5571 57.0371H44.8771C45.06 58.8657 45.9438 60.039 47.5286 60.5571V53.3343C45.1514 52.7248 43.2467 52.1305 41.8143 51.5514C40.4124 50.9724 39.1781 50.0429 38.1114 48.7629C37.0448 47.4829 36.5114 45.7305 36.5114 43.5057C36.5114 40.7324 37.5324 38.5076 39.5743 36.8314C41.6467 35.1552 44.2981 34.2105 47.5286 33.9971V30.2943H50.4543V33.9971C53.6543 34.241 56.1838 35.1705 58.0429 36.7857C59.9019 38.401 60.9381 40.641 61.1514 43.5057H52.7857C52.6029 41.86 51.8257 40.7933 50.4543 40.3057V47.3914C52.9838 48.0924 54.9343 48.7171 56.3057 49.2657C57.6771 49.8143 58.8962 50.7286 59.9629 52.0086C61.06 53.2581 61.6086 54.98 61.6086 57.1743ZM44.7857 43.14C44.7857 43.9019 45.0143 44.5419 45.4714 45.06C45.959 45.5781 46.6448 46.0352 47.5286 46.4314V40.0771C46.6752 40.2295 46.0048 40.5648 45.5171 41.0829C45.0295 41.5705 44.7857 42.2562 44.7857 43.14ZM50.4543 60.6943C51.3686 60.5419 52.0848 60.1762 52.6029 59.5971C53.1514 59.0181 53.4257 58.3019 53.4257 57.4486C53.4257 56.6562 53.1667 56.0162 52.6486 55.5286C52.161 55.0105 51.4295 54.5686 50.4543 54.2029V60.6943Z" fill="white"/>
</svg>
