<svg width="30" height="31" viewBox="0 0 30 31" fill="none" xmlns="http://www.w3.org/2000/svg">
<path d="M20.4255 2.99951H9.58799C5.35049 2.99951 2.50049 5.97451 2.50049 10.3995V20.612C2.50049 25.0245 5.35049 27.9995 9.58799 27.9995H20.4255C24.663 27.9995 27.5005 25.0245 27.5005 20.612V10.3995C27.5005 5.97451 24.663 2.99951 20.4255 2.99951Z" fill="white"/>
<path d="M13.5167 19.5596C13.2367 19.5596 12.9567 19.4533 12.7429 19.2396L9.77668 16.2733C9.34918 15.8458 9.34918 15.1533 9.77668 14.7271C10.2042 14.2996 10.8954 14.2983 11.3229 14.7258L13.5167 16.9196L18.6767 11.7596C19.1042 11.3321 19.7954 11.3321 20.2229 11.7596C20.6504 12.1871 20.6504 12.8796 20.2229 13.3071L14.2904 19.2396C14.0767 19.4533 13.7967 19.5596 13.5167 19.5596Z" fill="#3B82F6"/>
</svg>
