<svg width="16" height="16" viewBox="0 0 16 16" fill="none" xmlns="http://www.w3.org/2000/svg">
<path fill-rule="evenodd" clip-rule="evenodd" d="M3.3375 1.75H5.45C6.33125 1.75 7.0375 2.46875 7.0375 3.35063V5.48125C7.0375 6.36875 6.33125 7.08125 5.45 7.08125H3.3375C2.4625 7.08125 1.75 6.36875 1.75 5.48125V3.35063C1.75 2.46875 2.4625 1.75 3.3375 1.75ZM3.3375 8.91856H5.45C6.33125 8.91856 7.0375 9.63169 7.0375 10.5192V12.6498C7.0375 13.5311 6.33125 14.2498 5.45 14.2498H3.3375C2.4625 14.2498 1.75 13.5311 1.75 12.6498V10.5192C1.75 9.63169 2.4625 8.91856 3.3375 8.91856ZM12.6626 1.75H10.5501C9.66881 1.75 8.96256 2.46875 8.96256 3.35063V5.48125C8.96256 6.36875 9.66881 7.08125 10.5501 7.08125H12.6626C13.5376 7.08125 14.2501 6.36875 14.2501 5.48125V3.35063C14.2501 2.46875 13.5376 1.75 12.6626 1.75ZM10.5501 8.91856H12.6626C13.5376 8.91856 14.2501 9.63169 14.2501 10.5192V12.6498C14.2501 13.5311 13.5376 14.2498 12.6626 14.2498H10.5501C9.66881 14.2498 8.96256 13.5311 8.96256 12.6498V10.5192C8.96256 9.63169 9.66881 8.91856 10.5501 8.91856Z" fill="white"/>
</svg>
