<svg width="42" height="43" viewBox="0 0 42 43" fill="none" xmlns="http://www.w3.org/2000/svg">
<rect y="0.5" width="42" height="42" rx="5" fill="white"/>
<path fill-rule="evenodd" clip-rule="evenodd" d="M25.9395 12.5C27.2805 12.5 28.5705 13.03 29.5195 13.981C30.4695 14.93 31.0005 16.21 31.0005 17.55V25.45C31.0005 28.24 28.7305 30.5 25.9395 30.5H16.0605C13.2695 30.5 11.0005 28.24 11.0005 25.45V17.55C11.0005 14.76 13.2595 12.5 16.0605 12.5H25.9395ZM27.5305 19.04L27.6105 18.96C27.8495 18.67 27.8495 18.25 27.5995 17.96C27.4605 17.811 27.2695 17.72 27.0705 17.7C26.8605 17.689 26.6605 17.76 26.5095 17.9L22.0005 21.5C21.4205 21.981 20.5895 21.981 20.0005 21.5L15.5005 17.9C15.1895 17.67 14.7595 17.7 14.5005 17.97C14.2305 18.24 14.2005 18.67 14.4295 18.97L14.5605 19.1L19.1105 22.65C19.6705 23.09 20.3495 23.33 21.0605 23.33C21.7695 23.33 22.4605 23.09 23.0195 22.65L27.5305 19.04Z" fill="#3B82F6"/>
</svg>
