<svg width="100" height="100" viewBox="0 0 100 100" fill="none" xmlns="http://www.w3.org/2000/svg">
<rect width="100" height="100" rx="10" fill="#3B82F6"/>
<path fill-rule="evenodd" clip-rule="evenodd" d="M67.0049 53.1974C67.7287 53.582 68.2872 54.1891 68.6801 54.7962C69.4454 56.051 69.3833 57.5891 68.6388 58.9451L67.191 61.3736C66.4258 62.6689 64.9987 63.4784 63.5302 63.4784C62.8063 63.4784 61.9997 63.276 61.3379 62.8712C60.8001 62.5272 60.1796 62.4058 59.5178 62.4058C57.4702 62.4058 55.7536 64.0855 55.6916 66.0891C55.6916 68.4165 53.7888 70.2379 51.4103 70.2379H48.5975C46.1983 70.2379 44.2955 68.4165 44.2955 66.0891C44.2541 64.0855 42.5375 62.4058 40.4899 62.4058C39.8074 62.4058 39.1869 62.5272 38.6699 62.8712C38.008 63.276 37.1807 63.4784 36.4775 63.4784C34.9884 63.4784 33.5613 62.6689 32.7961 61.3736L31.369 58.9451C30.6037 57.6296 30.5623 56.051 31.3276 54.7962C31.6585 54.1891 32.279 53.582 32.9822 53.1974C33.5613 52.9141 33.9336 52.4486 34.2852 51.9022C35.3193 50.1617 34.6988 47.8748 32.9408 46.8427C30.8933 45.6891 30.2314 43.1189 31.4103 41.1153L32.7961 38.7272C33.9956 36.7236 36.5603 36.0153 38.6285 37.1891C40.4279 38.1605 42.765 37.5129 43.8198 35.7927C44.1507 35.226 44.3369 34.6189 44.2955 34.0117C44.2541 33.2224 44.4817 32.4736 44.8746 31.8665C45.6399 30.6117 47.0256 29.8022 48.5354 29.7617H51.4516C52.9821 29.7617 54.3679 30.6117 55.1331 31.8665C55.5054 32.4736 55.7536 33.2224 55.6916 34.0117C55.6502 34.6189 55.8363 35.226 56.1672 35.7927C57.2221 37.5129 59.5592 38.1605 61.3792 37.1891C63.4268 36.0153 66.0121 36.7236 67.191 38.7272L68.5767 41.1153C69.7763 43.1189 69.1145 45.6891 67.0462 46.8427C65.2882 47.8748 64.6677 50.1617 65.7225 51.9022C66.0535 52.4486 66.4258 52.9141 67.0049 53.1974ZM44.151 50.0192C44.151 53.1966 46.7777 55.7263 50.0248 55.7263C53.272 55.7263 55.8366 53.1966 55.8366 50.0192C55.8366 46.8418 53.272 44.2918 50.0248 44.2918C46.7777 44.2918 44.151 46.8418 44.151 50.0192Z" fill="white"/>
</svg>
