<svg width="100" height="100" viewBox="0 0 100 100" fill="none" xmlns="http://www.w3.org/2000/svg">
<rect width="100" height="100" rx="10" fill="#3B82F6"/>
<path fill-rule="evenodd" clip-rule="evenodd" d="M61.6754 42.6769H70.2384C70.2384 35.8016 66.1188 31.7852 59.1389 31.7852H40.8617C33.8818 31.7852 29.7622 35.8016 29.7622 42.5892V57.4097C29.7622 64.1973 33.8818 68.2137 40.8617 68.2137H59.1389C66.1188 68.2137 70.2384 64.1973 70.2384 57.4097V56.7783H61.6754C57.7013 56.7783 54.4797 53.6373 54.4797 49.7627C54.4797 45.888 57.7013 42.7471 61.6754 42.7471V42.6769ZM61.6756 45.6928H68.7274C69.562 45.6928 70.2385 46.3524 70.2385 47.166V52.2874C70.2288 53.0971 69.5579 53.7512 68.7274 53.7607H61.8375C59.8256 53.7871 58.0663 52.4441 57.6099 50.5335C57.3814 49.3475 57.7022 48.1237 58.4864 47.19C59.2706 46.2563 60.4379 45.7083 61.6756 45.6928ZM61.9813 51.0773H62.6469C63.5014 51.0773 64.194 50.402 64.194 49.5689C64.194 48.7359 63.5014 48.0606 62.6469 48.0606H61.9813C61.5727 48.0559 61.1791 48.2109 60.8884 48.491C60.5978 48.771 60.4342 49.1529 60.4342 49.5514C60.4342 50.3873 61.124 51.0677 61.9813 51.0773ZM39.35 42.6779H50.7732C51.6277 42.6779 52.3203 42.0026 52.3203 41.1695C52.3203 40.3365 51.6277 39.6612 50.7732 39.6612H39.35C38.5025 39.6611 37.8127 40.3258 37.8029 41.152C37.8028 41.9879 38.4926 42.6683 39.35 42.6779Z" fill="white"/>
</svg>
