<?xml version="1.0" encoding="utf-8"?>
<!-- Generator: Adobe Illustrator 26.3.1, SVG Export Plug-In . SVG Version: 6.00 Build 0)  -->
<svg version="1.1" id="Слой_1" xmlns="http://www.w3.org/2000/svg" xmlns:xlink="http://www.w3.org/1999/xlink" x="0px" y="0px"
	 viewBox="0 0 165 58" style="enable-background:new 0 0 165 58;" xml:space="preserve">
<style type="text/css">
	.st0{fill:#F8AE00;}
	.st1{fill:none;stroke:#008669;stroke-miterlimit:10;}
	.st2{fill:#008669;}
</style>
<g>
	<g>
		<path class="st0" d="M22.13,47.61c-0.76,0-1.53-0.29-2.11-0.87l-4.05-4.05h-5.73c-1.65,0-2.98-1.34-2.98-2.98v-5.73L3.2,29.92
			c-1.16-1.16-1.16-3.06,0-4.22l4.05-4.05v-5.73c0-1.65,1.34-2.98,2.98-2.98h5.73l4.05-4.05c1.16-1.16,3.06-1.16,4.22,0l4.05,4.05
			h5.73c1.65,0,2.98,1.34,2.98,2.98v5.73l4.05,4.05c1.16,1.16,1.16,3.06,0,4.22l-4.05,4.05v5.73c0,1.65-1.34,2.98-2.98,2.98H28.3
			l-4.05,4.05C23.66,47.32,22.9,47.61,22.13,47.61z"/>
		<path class="st1" d="M42.2,25.83l-4.48-4.48v-6.34c0-1.54-1.25-2.79-2.79-2.79h-6.34l-4.48-4.48c-1.09-1.09-2.86-1.09-3.95,0
			l-4.48,4.48H9.34c-1.54,0-2.79,1.25-2.79,2.79v6.34l-4.48,4.48c-1.09,1.09-1.09,2.86,0,3.95l4.48,4.48v6.34
			c0,1.54,1.25,2.79,2.79,2.79h6.34l4.48,4.48c1.09,1.09,2.86,1.09,3.95,0l4.48-4.48h6.34c1.54,0,2.79-1.25,2.79-2.79v-6.34
			l4.48-4.48C43.29,28.69,43.29,26.92,42.2,25.83z M40.34,29.19l-4.35,4.35v6.16c0,1.08-0.88,1.96-1.96,1.96h-6.16l-4.35,4.35
			c-0.77,0.77-2.01,0.77-2.77,0l-4.35-4.35h-6.16c-1.08,0-1.96-0.88-1.96-1.96v-6.16l-4.35-4.35c-0.77-0.77-0.77-2.01,0-2.77
			l4.35-4.35v-6.16c0-1.08,0.88-1.96,1.96-1.96h6.16l4.35-4.35c0.77-0.77,2.01-0.77,2.77,0l4.35,4.35h6.16
			c1.08,0,1.96,0.88,1.96,1.96v6.16l4.35,4.35C41.11,27.19,41.11,28.43,40.34,29.19z"/>
		<g>
			<path class="st2" d="M20.7,11.93L6.26,26.37c-0.79,0.79-0.79,2.08,0,2.88l3.55,3.55c1.15-1.4,2.92-3.03,5.49-4.24
				c5.5-2.58,8.83-0.24,12.24-4.26c2.13-2.51,1.64-5.22,1.06-6.79c-0.23-0.6-0.59-1.14-1.04-1.6l-3.98-3.98
				C22.78,11.14,21.49,11.14,20.7,11.93z"/>
			<path class="st2" d="M23.57,43.68l14.44-14.44c0.79-0.79,0.79-2.08,0-2.88l-3.55-3.55c-1.15,1.4-2.92,3.03-5.49,4.24
				c-5.5,2.58-8.83,0.24-12.24,4.26c-2.13,2.51-1.64,5.22-1.06,6.79c0.23,0.6,0.59,1.14,1.04,1.6l3.98,3.98
				C21.49,44.47,22.78,44.47,23.57,43.68z"/>
		</g>
		<path class="st2" d="M42.2,25.83l-4.48-4.48v-6.34c0-1.54-1.25-2.79-2.79-2.79h-6.34l-4.48-4.48c-1.09-1.09-2.86-1.09-3.95,0
			l-4.48,4.48H9.34c-1.54,0-2.79,1.25-2.79,2.79v6.34l-4.48,4.48c-1.09,1.09-1.09,2.86,0,3.95l4.48,4.48v6.34
			c0,1.54,1.25,2.79,2.79,2.79h6.34l4.48,4.48c1.09,1.09,2.86,1.09,3.95,0l4.48-4.48h6.34c1.54,0,2.79-1.25,2.79-2.79v-6.34
			l4.48-4.48C43.29,28.69,43.29,26.92,42.2,25.83z M40.34,29.19l-4.35,4.35v6.16c0,1.08-0.88,1.96-1.96,1.96h-6.16l-4.35,4.35
			c-0.77,0.77-2.01,0.77-2.77,0l-4.35-4.35h-6.16c-1.08,0-1.96-0.88-1.96-1.96v-6.16l-4.35-4.35c-0.77-0.77-0.77-2.01,0-2.77
			l4.35-4.35v-6.16c0-1.08,0.88-1.96,1.96-1.96h6.16l4.35-4.35c0.77-0.77,2.01-0.77,2.77,0l4.35,4.35h6.16
			c1.08,0,1.96,0.88,1.96,1.96v6.16l4.35,4.35C41.11,27.19,41.11,28.43,40.34,29.19z"/>
	</g>
	<path class="st2" d="M143.32,43.47h5.1v-11.3l9.15,11.3h6.18l-10.38-12.89l9.55-9.82h-5.97l-8.52,8.77V12.15h-5.1V43.47z
		 M117.31,20.76l8.66,21.79l-0.22,0.6c-0.96,2.55-2.51,3.09-3.78,3.09c-0.47,0-1.03-0.04-1.48-0.18v4.61c0.45,0.18,1.41,0.4,2.6,0.4
		c4.18,0,6.24-2.77,8.01-7.34l8.88-22.98h-5.41l-5.79,15.97l-6-15.97H117.31z M108.1,36.98c0,4.34,1.95,6.89,6.13,6.89
		c1.19,0,2.1-0.22,2.55-0.4v-4.63c-0.38,0.11-0.76,0.2-1.25,0.2c-1.39,0-2.3-0.92-2.3-2.73V12.15h-5.12V36.98z M85.74,32.11
		c0-4.5,3.09-6.94,6.26-6.94c3.18,0,6.26,2.44,6.26,6.94c0,4.5-3.09,6.94-6.26,6.94C88.82,39.04,85.74,36.6,85.74,32.11z
		 M80.43,32.11c0,7.52,5.24,11.77,10.65,11.77c3.69,0,6.06-1.92,7.12-3.51v3.11h5.12V20.76H98.2v3.09
		c-1.05-1.57-3.42-3.49-7.12-3.49C85.67,20.36,80.43,24.57,80.43,32.11z M51.33,43.47h5.28V29.8h14.83v13.67h5.28V12.15h-5.28v12.82
		H56.61V12.15h-5.28V43.47z"/>
</g>
</svg>
