<svg width="850" height="850" viewBox="0 0 850 850" fill="none" xmlns="http://www.w3.org/2000/svg">
<path d="M424.542 102.293C513.527 102.293 594.084 138.368 652.395 196.678C710.705 254.989 746.78 335.556 746.78 424.531C746.78 513.517 710.705 594.074 652.395 652.385C594.084 710.705 513.527 746.77 424.542 746.77C335.556 746.77 254.999 710.705 196.688 652.385C138.378 594.074 102.304 513.517 102.304 424.531C102.304 335.556 138.378 254.989 196.688 196.678C254.999 138.368 335.556 102.293 424.542 102.293ZM629.788 706.726L629.258 706.036L643.196 695.348L643.726 696.028L642.836 696.708C642.066 697.308 641.547 697.927 641.287 698.557C641.087 699.017 641.067 699.527 641.237 700.127C641.336 700.547 641.906 701.437 642.936 702.797L656.484 720.444C657.544 721.824 658.284 722.623 658.684 722.863C659.094 723.093 659.614 723.173 660.253 723.093C660.893 723.023 661.583 722.693 662.333 722.113L663.223 721.434L663.743 722.123L649.805 732.822L649.285 732.132L650.165 731.452C650.935 730.862 651.445 730.252 651.705 729.612C651.895 729.162 651.925 728.643 651.775 728.043C651.665 727.613 651.105 726.723 650.065 725.373L636.517 707.716C635.457 706.336 634.728 705.536 634.318 705.306C633.898 705.076 633.378 704.996 632.738 705.076C632.098 705.156 631.408 705.476 630.668 706.046L629.788 706.726ZM672.062 716.374L665.733 709.826L666.352 709.216C668.202 710.365 669.672 711.045 670.772 711.255C671.882 711.465 673.031 711.375 674.221 710.985C674.871 710.755 675.771 710.105 676.911 709.006L678.74 707.236L660.633 688.489C659.424 687.239 658.594 686.519 658.164 686.339C657.724 686.159 657.194 686.149 656.584 686.289C655.954 686.439 655.304 686.839 654.624 687.499L653.825 688.269L653.225 687.639L665.863 675.441L666.462 676.061L665.663 676.831C664.963 677.511 664.523 678.171 664.343 678.841C664.203 679.3 664.233 679.83 664.453 680.41C664.603 680.82 665.263 681.64 666.453 682.87L684.56 701.617L686.319 699.917C687.939 698.347 688.789 696.858 688.859 695.458C688.959 693.498 688.279 691.499 686.819 689.449L687.519 688.779L693.848 695.328L672.062 716.374ZM711.945 673.041L701.537 664.063L701.097 664.573C699.697 666.203 699.187 667.812 699.577 669.422C699.957 671.022 701.057 672.781 702.867 674.691L702.227 675.421L688.849 663.883L689.479 663.153C691.068 664.263 692.538 664.973 693.878 665.293C695.238 665.603 696.338 665.583 697.217 665.213C698.087 664.853 699.057 664.053 700.107 662.833L692.918 656.644C691.518 655.424 690.609 654.754 690.189 654.604C689.779 654.445 689.329 654.445 688.839 654.604C688.359 654.764 687.799 655.204 687.179 655.924L685.859 657.454C683.8 659.844 682.71 662.233 682.56 664.623C682.42 667.002 683.21 669.492 684.93 672.062L684.33 672.761L677.201 664.613L696.218 642.546L696.878 643.116L696.148 643.956C695.518 644.696 695.128 645.406 695.008 646.086C694.908 646.566 694.998 647.076 695.278 647.625C695.458 648.015 696.198 648.775 697.487 649.895L714.335 664.413C715.505 665.423 716.245 666.003 716.564 666.173C717.114 666.432 717.654 666.493 718.194 666.353C718.954 666.183 719.694 665.693 720.404 664.863L721.134 664.023L721.794 664.583L703.377 685.949L695.818 679.44L696.448 678.701C698.607 679.94 700.377 680.57 701.747 680.6C703.107 680.64 704.496 680.22 705.916 679.35C706.746 678.841 707.986 677.631 709.656 675.701L711.945 673.041ZM727.993 656.954L720.554 651.685L721.054 650.985C723.083 651.755 724.653 652.155 725.773 652.155C726.903 652.165 728.013 651.865 729.112 651.255C729.712 650.915 730.472 650.095 731.392 648.805L732.862 646.736L711.575 631.678C710.166 630.668 709.216 630.118 708.756 630.018C708.296 629.928 707.766 630.008 707.196 630.268C706.606 630.528 706.046 631.038 705.496 631.818L704.856 632.718L704.146 632.218L714.295 617.88L715.005 618.38L714.355 619.29C713.805 620.08 713.495 620.82 713.435 621.5C713.385 621.99 713.515 622.49 713.835 623.019C714.055 623.399 714.865 624.079 716.254 625.069L737.531 640.127L738.941 638.127C740.251 636.287 740.8 634.668 740.611 633.278C740.341 631.338 739.311 629.498 737.501 627.749L738.051 626.959L745.49 632.228L727.993 656.954ZM751.799 610.422C753.388 611.311 754.578 611.741 755.348 611.691C756.108 611.641 756.908 610.891 757.748 609.422L758.298 608.452L759.058 608.882L750.099 624.579L749.339 624.149L749.929 623.129C750.699 621.77 750.949 620.72 750.679 619.98C750.409 619.24 749.379 618.36 747.599 617.35L728.273 606.322C726.463 605.292 725.183 604.852 724.413 605.012C723.643 605.172 722.873 605.922 722.113 607.262L721.534 608.282L720.774 607.852L729.732 592.154L730.482 592.584L729.932 593.554C729.152 594.914 728.912 595.964 729.212 596.694C729.512 597.434 730.542 598.294 732.282 599.293L748.259 608.412L737.891 588.775C736.481 587.975 735.381 587.565 734.572 587.565C733.762 587.565 732.922 588.315 732.052 589.835L731.472 590.855L730.722 590.425L739.671 574.727L740.431 575.157L739.871 576.127C739.091 577.497 738.841 578.567 739.131 579.307C739.431 580.046 740.451 580.916 742.2 581.916L761.527 592.934C763.307 593.954 764.557 594.434 765.277 594.384C765.996 594.334 766.806 593.544 767.686 591.994L768.246 591.025L768.996 591.455L760.037 607.152L759.288 606.722L759.867 605.702C760.617 604.393 760.837 603.343 760.507 602.573C760.197 601.793 759.198 600.923 757.508 599.973L741.42 590.785L751.799 610.422ZM774.855 580.456L763.917 576.257L764.267 575.357C767.396 575.777 770.076 575.357 772.315 574.097C774.555 572.828 776.125 571.018 777.025 568.668C777.775 566.719 777.905 564.699 777.395 562.629C776.895 560.56 775.865 558.8 774.325 557.33C772.355 555.46 769.936 553.981 767.066 552.881C764.247 551.801 761.537 551.161 758.948 550.981C756.358 550.811 754.168 551.241 752.409 552.301C750.639 553.361 749.299 555.1 748.369 557.51C747.609 559.49 747.359 561.459 747.589 563.439C747.829 565.419 748.659 567.719 750.079 570.358L747.369 569.318C746.2 566.849 745.56 564.499 745.46 562.269C745.36 560.04 745.8 557.66 746.78 555.111C748.069 551.751 749.889 549.031 752.229 546.942C754.578 544.852 757.288 543.582 760.347 543.142C763.417 542.692 766.376 543.012 769.226 544.112C772.235 545.262 774.785 547.142 776.875 549.741C778.964 552.341 780.244 555.26 780.714 558.5C781.174 561.729 780.834 564.849 779.684 567.848C778.834 570.058 777.465 572.198 775.565 574.287C774.455 575.497 773.825 576.297 773.685 576.677C773.495 577.177 773.505 577.677 773.735 578.177C773.955 578.687 774.445 579.137 775.195 579.547L774.855 580.456ZM775.195 519.736L766.196 517.127C764.437 516.617 763.297 516.397 762.777 516.487C762.257 516.567 761.777 516.837 761.337 517.317C760.917 517.776 760.477 518.756 760.057 520.216L759.227 519.976L764.007 503.499L764.837 503.739C764.407 505.239 764.247 506.298 764.377 506.908C764.497 507.528 764.757 508.008 765.147 508.358C765.527 508.708 766.606 509.128 768.376 509.648L789.443 515.767C791.212 516.287 792.352 516.497 792.872 516.407C793.392 516.327 793.872 516.067 794.302 515.597C794.732 515.127 795.162 514.157 795.592 512.677L796.422 512.917L792.322 527.045C790.962 531.704 789.163 534.804 786.923 536.344C784.673 537.883 782.314 538.293 779.824 537.573C777.714 536.963 776.105 535.784 774.985 534.034C773.865 532.294 773.365 530.205 773.485 527.745C773.555 526.095 774.125 523.426 775.195 519.736ZM791.082 524.355L777.055 520.276C776.865 520.796 776.735 521.196 776.655 521.466C776.095 523.416 776.235 525.085 777.085 526.475C777.934 527.865 779.574 528.915 782.004 529.615C784.413 530.315 786.323 530.305 787.753 529.575C789.173 528.845 790.193 527.425 790.802 525.345L791.082 524.355ZM799.781 484.552L786.223 482.272L786.113 482.932C785.753 485.052 786.163 486.692 787.323 487.871C788.483 489.041 790.333 489.981 792.862 490.671L792.712 491.621L775.285 488.691L775.445 487.741C777.375 487.871 779.004 487.711 780.314 487.281C781.634 486.851 782.574 486.262 783.124 485.492C783.684 484.732 784.104 483.552 784.363 481.962L775.015 480.392C773.175 480.083 772.055 479.973 771.616 480.063C771.186 480.143 770.796 480.372 770.466 480.762C770.136 481.142 769.886 481.812 769.726 482.752L769.396 484.742C768.876 487.851 769.176 490.461 770.286 492.581C771.406 494.69 773.365 496.41 776.165 497.72L776.015 498.63L765.696 495.35L770.526 466.625L771.376 466.765L771.196 467.865C771.036 468.824 771.076 469.634 771.326 470.284C771.485 470.744 771.825 471.134 772.345 471.454C772.715 471.704 773.735 471.964 775.415 472.244L797.361 475.933C798.871 476.193 799.811 476.303 800.171 476.283C800.781 476.213 801.271 475.993 801.651 475.603C802.221 475.053 802.601 474.254 802.781 473.174L802.96 472.074L803.81 472.224L799.141 500.039L789.303 498.38L789.463 497.43C791.952 497.36 793.782 496.98 794.972 496.31C796.162 495.63 797.141 494.55 797.891 493.07C798.341 492.211 798.781 490.531 799.201 488.011L799.781 484.552ZM789.613 451.837C788.633 454.987 787.553 457.176 786.393 458.386C784.743 460.136 782.724 460.916 780.324 460.736C777.794 460.546 775.765 459.366 774.265 457.206C772.445 454.557 771.725 450.847 772.085 446.098L773.385 429.001L774.245 429.071C774.125 430.631 774.195 431.7 774.445 432.27C774.695 432.85 775.045 433.27 775.495 433.52C775.935 433.79 777.085 433.98 778.914 434.12L800.801 435.78C802.631 435.92 803.79 435.9 804.28 435.71C804.78 435.52 805.19 435.15 805.52 434.62C805.84 434.07 806.06 433.03 806.18 431.49L807.04 431.56L805.82 447.688C805.52 451.547 804.97 454.237 804.16 455.796C803.36 457.356 802.241 458.536 800.801 459.366C799.371 460.186 797.881 460.536 796.352 460.416C794.722 460.296 793.332 459.596 792.152 458.316C790.982 457.036 790.133 454.877 789.613 451.837ZM790.972 442.849C790.792 445.218 790.922 446.988 791.362 448.158C791.802 449.318 792.482 450.237 793.402 450.917C794.312 451.587 795.522 451.987 797.011 452.097C798.491 452.207 799.741 452.007 800.731 451.487C801.731 450.967 802.51 450.177 803.1 449.108C803.68 448.038 804.05 446.288 804.22 443.858L790.972 442.849ZM789.043 442.699L778.264 441.889L777.015 441.789C776.125 441.719 775.435 441.889 774.955 442.309C774.465 442.719 774.185 443.359 774.115 444.238C774.015 445.548 774.225 446.758 774.725 447.908C775.225 449.048 776.005 449.947 777.075 450.617C778.144 451.287 779.364 451.677 780.724 451.777C782.294 451.897 783.724 451.677 785.013 451.117C786.313 450.557 787.263 449.657 787.863 448.408C788.473 447.158 788.863 445.258 789.043 442.699ZM800.681 408.734C802.501 408.574 803.71 408.264 804.33 407.804C804.93 407.334 805.17 406.254 805.04 404.575L804.96 403.455L805.82 403.395L807.19 421.412L806.33 421.482L806.24 420.312C806.12 418.752 805.74 417.733 805.1 417.283C804.46 416.823 803.12 416.663 801.071 416.823L778.884 418.503C776.815 418.663 775.505 419.012 774.955 419.572C774.405 420.142 774.185 421.192 774.305 422.732L774.395 423.902L773.535 423.972L772.165 405.945L773.025 405.875L773.115 406.994C773.225 408.564 773.625 409.564 774.275 410.004C774.935 410.444 776.265 410.584 778.274 410.434L796.622 409.044L777.035 398.576C775.415 398.706 774.285 398.986 773.605 399.436C772.925 399.885 772.655 400.985 772.785 402.735L772.875 403.895L772.016 403.965L770.646 385.938L771.506 385.878L771.596 386.998C771.715 388.567 772.105 389.587 772.765 390.037C773.425 390.487 774.755 390.637 776.765 390.477L798.941 388.797C800.991 388.647 802.301 388.337 802.87 387.898C803.44 387.458 803.66 386.348 803.53 384.568L803.44 383.458L804.3 383.388L805.67 401.415L804.81 401.475L804.72 400.305C804.6 398.796 804.2 397.806 803.5 397.346C802.8 396.876 801.491 396.726 799.561 396.866L781.084 398.276L800.681 408.734ZM781.964 353.433L771.616 355.173C769.906 355.453 768.846 355.733 768.446 355.983C768.056 356.253 767.736 356.673 767.516 357.272C767.276 357.872 767.246 358.632 767.396 359.552L767.586 360.652L766.726 360.792L763.817 343.465L764.667 343.325L764.857 344.424C765.017 345.384 765.327 346.134 765.766 346.664C766.066 347.044 766.516 347.304 767.116 347.444C767.536 347.554 768.596 347.464 770.276 347.184L792.212 343.495C793.932 343.205 794.982 342.935 795.382 342.695C795.782 342.435 796.092 342.015 796.321 341.415C796.561 340.815 796.592 340.055 796.432 339.115L796.252 338.016L797.101 337.876L800.011 355.193L799.161 355.343L798.981 354.243C798.821 353.293 798.511 352.553 798.071 352.023C797.761 351.643 797.321 351.373 796.711 351.223C796.292 351.113 795.242 351.193 793.562 351.483L784.114 353.063L786.103 364.871L795.542 363.281C797.261 362.991 798.311 362.722 798.711 362.472C799.101 362.212 799.421 361.792 799.641 361.182C799.881 360.572 799.911 359.812 799.761 358.882L799.571 357.802L800.431 357.652L803.34 374.98L802.491 375.12L802.301 374.04C802.141 373.07 801.831 372.32 801.401 371.81C801.091 371.42 800.641 371.16 800.041 371.01C799.621 370.9 798.561 370.98 796.881 371.26L774.945 374.95C773.225 375.239 772.165 375.509 771.776 375.759C771.376 376.009 771.056 376.439 770.836 377.049C770.606 377.659 770.566 378.419 770.726 379.349L770.906 380.429L770.056 380.579L767.136 363.251L767.996 363.111L768.176 364.191C768.336 365.161 768.646 365.911 769.086 366.421C769.386 366.801 769.836 367.071 770.446 367.221C770.866 367.331 771.915 367.251 773.595 366.971L783.943 365.231L781.964 353.433ZM791.372 318.439L794.512 329.247L793.682 329.487C793.262 328.397 792.592 327.607 791.662 327.107C790.732 326.617 788.983 326.117 786.403 325.648L763.697 321.328C760.147 320.648 757.838 319.839 756.768 318.909C755.698 317.969 754.928 316.709 754.468 315.119C753.968 313.389 754.058 311.94 754.738 310.79C755.428 309.63 756.348 308.89 757.518 308.55C758.458 308.28 759.328 308.37 760.117 308.82C760.917 309.27 761.447 309.95 761.707 310.85C761.957 311.71 761.927 312.41 761.587 312.94C761.257 313.459 760.537 313.969 759.418 314.469C758.108 315.049 757.588 315.809 757.858 316.749C758.178 317.859 759.557 318.609 761.987 318.999L763.037 319.199L780.754 301.491C782.264 299.982 783.174 298.792 783.484 297.912C783.814 297.032 783.824 295.892 783.514 294.473L784.343 294.233L789.033 310.37L788.203 310.61L788.023 309.99C787.473 308.11 786.743 307.3 785.843 307.57C785.503 307.67 785.043 307.98 784.483 308.53L772.085 320.928L785.933 323.568C787.853 323.928 789.183 323.988 789.903 323.778C790.453 323.618 790.832 323.248 791.042 322.648C791.252 322.048 791.092 320.728 790.543 318.679L791.372 318.439ZM732.412 283.174L732.012 282.415C737.191 278.215 738.451 273.606 735.771 268.587L743.94 256.399C744.81 255.109 745.29 254.299 745.4 253.959C745.57 253.299 745.4 252.429 744.87 251.339L734.761 256.719C733.312 257.488 732.542 258.348 732.462 259.298C732.402 260.008 732.792 261.138 733.622 262.698L732.852 263.098L724.593 247.6L725.363 247.19C726.273 248.83 727.093 249.8 727.813 250.09C728.643 250.43 729.852 250.16 731.452 249.31L751.399 238.681C753.089 237.792 754.108 237.022 754.488 236.372C754.958 235.512 754.778 234.312 753.958 232.773L753.618 232.133L754.388 231.733L762.647 247.23L761.877 247.64L761.607 247.13C760.837 245.68 760.037 244.851 759.227 244.651C758.408 244.441 757.248 244.741 755.748 245.54L746.849 250.28C747.799 252.059 748.369 253.089 748.559 253.339C749.309 254.399 750.229 255.029 751.319 255.229C752.259 255.399 753.808 255.229 755.998 254.709C758.168 254.189 759.797 253.869 760.867 253.769C762.787 253.609 764.397 253.859 765.687 254.519C766.826 255.109 767.776 256.109 768.536 257.529C769.226 258.818 769.446 260.098 769.186 261.358C768.916 262.688 768.136 263.688 766.846 264.377C765.966 264.837 765.107 264.947 764.277 264.677C763.437 264.417 762.787 263.847 762.317 262.968C761.437 261.308 761.927 259.898 763.787 258.738C764.727 258.158 765.037 257.558 764.707 256.949C764.077 255.769 761.797 255.609 757.868 256.479C755.798 256.949 754.428 257.209 753.758 257.279C752.109 257.489 750.739 257.399 749.659 257.019C750.099 258.758 749.929 260.348 749.149 261.818C749.019 262.068 747.939 263.777 745.9 266.927L742.08 272.846C741.54 273.706 741.24 274.576 741.2 275.466C741.15 276.345 741.37 277.245 741.85 278.155L732.412 283.174ZM717.084 203.187L719.634 206.837C722.393 210.776 723.693 214.115 723.553 216.865C723.413 219.615 722.183 221.804 719.864 223.424C718.294 224.524 716.624 225.024 714.845 224.924C713.065 224.814 711.425 224.274 709.906 223.304C708.396 222.334 706.726 220.535 704.896 217.915L694.538 203.117L695.248 202.617C696.478 204.307 697.467 205.247 698.237 205.417C699.017 205.587 700.127 205.167 701.597 204.147L719.954 191.299C721.933 189.919 723.013 188.86 723.163 188.15C723.323 187.45 722.823 186.22 721.634 184.47L722.343 183.97L732.302 198.198L731.592 198.698C730.662 197.398 729.922 196.618 729.402 196.358C728.862 196.088 728.353 195.988 727.893 196.048C727.413 196.098 726.503 196.598 725.133 197.558L717.084 203.187ZM715.295 204.447L706.946 210.276C705.636 211.196 704.826 212.036 704.546 212.776C704.276 213.516 704.476 214.385 705.166 215.375C706.276 216.965 707.646 217.785 709.296 217.835C710.925 217.895 712.555 217.355 714.155 216.235C715.705 215.145 716.754 213.876 717.294 212.406C717.834 210.936 717.924 209.656 717.564 208.566C717.204 207.477 716.444 206.097 715.295 204.447ZM722.833 242.041L722.123 242.541L712.055 228.143L712.765 227.653L713.385 228.543C713.995 229.413 714.595 229.963 715.185 230.193C715.765 230.423 716.315 230.463 716.804 230.313C717.304 230.163 718.194 229.623 719.484 228.723L737.711 215.975C739.011 215.065 739.811 214.415 740.111 214.055C740.411 213.675 740.551 213.156 740.541 212.466C740.511 211.786 740.211 211.026 739.631 210.186L739.001 209.296L739.711 208.796L749.779 223.184L749.069 223.684L748.439 222.784C747.839 221.924 747.24 221.374 746.65 221.144C746.06 220.914 745.52 220.864 745.03 221.024C744.53 221.174 743.64 221.704 742.35 222.604L724.123 235.362C722.823 236.272 722.013 236.912 721.714 237.282C721.414 237.652 721.274 238.182 721.294 238.872C721.314 239.551 721.624 240.311 722.203 241.141L722.833 242.041ZM713.805 176.332C712.555 175.002 711.525 174.352 710.735 174.372C709.945 174.392 708.966 174.952 707.796 176.052L690.729 192.169C689.419 193.409 688.739 194.409 688.719 195.159C688.689 195.908 689.309 196.988 690.589 198.388L689.959 198.988L678.321 186.66L678.951 186.06C679.88 187.04 680.62 187.67 681.16 187.91C681.71 188.16 682.25 188.19 682.8 188.01C683.34 187.84 684.1 187.29 685.07 186.38L704.316 168.213L698.757 162.324L691.429 169.243C688.359 172.142 685.949 174.272 684.2 175.632C682.46 177.001 680.54 178.021 678.451 178.701C676.361 179.381 674.451 179.531 672.711 179.141C670.982 178.751 669.502 177.911 668.262 176.602C667.152 175.422 666.592 174.212 666.592 172.962C666.612 171.732 667.072 170.673 667.982 169.813C668.752 169.093 669.562 168.703 670.422 168.643C671.292 168.583 672.082 168.923 672.792 169.673C674.101 171.062 673.961 172.652 672.382 174.412C671.662 175.212 671.572 175.872 672.082 176.412C672.802 177.171 674.061 177.491 675.891 177.391C677.721 177.281 679.66 176.522 681.71 175.122C683.76 173.702 686.469 171.402 689.869 168.193L694.498 163.824C695.828 162.564 696.638 161.654 696.918 161.074C697.218 160.494 697.247 159.864 697.008 159.214C696.768 158.564 696.098 157.635 694.998 156.415L695.628 155.825L714.435 175.742L713.805 176.332ZM656.954 152.665L648.105 144.857L644.826 146.346C643.746 146.866 642.976 147.406 642.496 147.946C641.856 148.666 641.677 149.446 641.946 150.286C642.106 150.786 642.796 151.666 644.026 152.925L643.456 153.575L635.048 146.156L635.627 145.507C636.647 146.166 637.737 146.446 638.857 146.346C639.997 146.236 641.857 145.597 644.426 144.397L671.262 132.219L671.612 132.529L662.433 161.294C661.553 164.044 661.163 165.933 661.263 166.943C661.343 167.713 661.743 168.453 662.463 169.203L661.883 169.853L649.665 159.054L650.235 158.414L650.735 158.854C651.715 159.714 652.535 160.194 653.175 160.264C653.625 160.304 654.014 160.134 654.344 159.754C654.544 159.524 654.724 159.264 654.854 158.954C654.934 158.824 655.164 158.184 655.554 157.035L656.954 152.665ZM657.574 150.766L661.413 138.818L649.935 144.027L657.574 150.766ZM619.54 96.1445L634.318 105.643L633.848 106.363L633.368 106.053C631.978 105.163 630.878 104.813 630.068 105.033C629.269 105.253 628.409 106.083 627.479 107.533L622.03 116.021C623.989 117.271 625.299 118.021 625.969 118.271C626.639 118.511 627.429 118.481 628.339 118.161C629.249 117.851 630.518 116.941 632.148 115.421C634.048 113.662 635.597 112.412 636.787 111.682C637.977 110.942 639.227 110.552 640.517 110.502C641.816 110.462 643.126 110.872 644.476 111.742C645.816 112.592 646.646 113.662 646.966 114.951C647.286 116.231 647.086 117.421 646.366 118.541C645.806 119.411 645.096 119.921 644.236 120.071C643.366 120.231 642.536 120.051 641.726 119.531C640.137 118.511 639.887 117.041 640.947 115.111C641.477 114.152 641.456 113.482 640.867 113.112C640.237 112.702 639.477 112.722 638.567 113.132C637.667 113.562 636.367 114.532 634.668 116.041C633.018 117.521 631.718 118.591 630.768 119.251C629.838 119.921 628.839 120.341 627.779 120.521C628.529 121.32 629.029 122.05 629.268 122.72C629.518 123.39 629.648 124.14 629.658 124.97C629.678 125.8 629.578 127.809 629.339 131.009L628.899 138.038C628.849 139.088 629.019 140.007 629.398 140.777C629.778 141.547 630.408 142.207 631.288 142.777L630.818 143.507L621.3 137.388L622.44 122.77C622.58 121.101 622.57 120.031 622.42 119.581C622.28 119.111 621.75 118.561 620.82 117.901L614.631 127.539C613.741 128.919 613.461 129.989 613.781 130.729C614.101 131.469 615.031 132.339 616.551 133.319L616.081 134.038L601.303 124.55L601.773 123.82C603.423 124.85 604.652 125.29 605.462 125.16C606.262 125.02 607.152 124.21 608.122 122.7L620.33 103.673C621.41 102.004 621.93 100.744 621.89 99.9139C621.86 99.0641 621.12 98.1942 619.68 97.2643L619.07 96.8744L619.54 96.1445ZM598.354 91.0853C599.183 89.4656 599.563 88.2658 599.493 87.4959C599.413 86.736 598.633 85.9661 597.134 85.1863L596.144 84.6664L596.544 83.8965L612.551 92.2752L612.151 93.045L611.121 92.5051C609.732 91.7752 608.662 91.5652 607.942 91.8652C607.212 92.1651 606.372 93.215 605.422 95.0347L595.104 114.752C594.144 116.591 593.744 117.891 593.934 118.651C594.124 119.421 594.894 120.161 596.264 120.871L597.304 121.42L596.904 122.18L580.886 113.802L581.296 113.032L582.286 113.552C583.676 114.282 584.726 114.482 585.456 114.162C586.175 113.832 587.005 112.782 587.935 110.992L596.464 94.6947L577.217 105.773C576.467 107.213 576.107 108.323 576.127 109.132C576.157 109.952 576.947 110.762 578.497 111.572L579.536 112.112L579.127 112.882L563.119 104.503L563.519 103.733L564.509 104.253C565.909 104.983 566.979 105.193 567.708 104.873C568.448 104.553 569.278 103.503 570.208 101.714L580.526 82.0068C581.476 80.1871 581.906 78.9173 581.836 78.1974C581.756 77.4775 580.936 76.7076 579.357 75.8778L578.367 75.3578L578.767 74.598L594.784 82.9767L594.384 83.7465L593.344 83.1966C592.005 82.4967 590.945 82.3168 590.185 82.6667C589.425 83.0167 588.595 84.0465 587.695 85.7562L579.107 102.174L598.354 91.0853ZM540.403 60.8002L568.558 70.3586L565.619 79.0373L564.799 78.7573C565.139 76.4877 565.179 74.818 564.879 73.7282C564.589 72.6583 564.059 71.8384 563.289 71.2985C562.529 70.7586 560.89 70.0587 558.37 69.2089L551.851 66.9992L543.422 91.8252C542.802 93.6449 542.682 94.8947 543.032 95.5846C543.382 96.2645 544.252 96.8344 545.652 97.3143L546.472 97.5843L546.192 98.4042L529.555 92.7651L529.835 91.9452L530.734 92.2451C532.124 92.715 533.154 92.7751 533.834 92.4051C534.524 92.0352 535.164 90.9854 535.764 89.2257L543.232 67.1892C543.732 65.7194 543.882 64.6096 543.672 63.8497C543.462 63.0899 542.622 62.46 541.143 61.96L540.123 61.6201L540.403 60.8002ZM513.237 52.7815C518.516 53.7814 522.426 56.2709 524.965 60.2603C527.505 64.2597 528.225 68.6789 527.115 73.5681C526.165 77.7275 524.115 81.117 520.946 83.7265C516.757 87.186 511.717 88.2558 505.808 86.916C499.879 85.5663 495.76 82.5267 493.44 77.7875C491.601 74.0381 491.171 69.9987 492.161 65.6494C493.27 60.7702 495.85 57.0808 499.919 54.5912C503.989 52.0816 508.418 51.4917 513.237 52.7815ZM513.167 54.3913C510.148 53.7014 507.508 54.7112 505.238 57.4208C503.379 59.6504 501.919 63.1198 500.849 67.8291C499.579 73.4382 499.629 77.8075 500.999 80.937C501.959 83.1166 503.669 84.4964 506.148 85.0563C507.818 85.4362 509.318 85.3462 510.618 84.8063C512.267 84.0864 513.767 82.6867 515.077 80.597C516.387 78.5174 517.456 75.6478 518.276 71.9984C519.266 67.6591 519.596 64.3097 519.276 61.9801C518.956 59.6304 518.266 57.8807 517.217 56.7109C516.157 55.5411 514.807 54.7612 513.167 54.3913ZM457.996 43.8629L487.451 47.9023L486.212 56.9809L485.352 56.8608C485.262 54.5712 484.982 52.9215 484.482 51.9117C483.992 50.9118 483.322 50.2119 482.462 49.822C481.612 49.442 479.873 49.0721 477.233 48.7022L470.414 47.7723L466.855 73.7481C466.595 75.6578 466.705 76.9076 467.175 77.5075C467.655 78.1174 468.614 78.5074 470.074 78.7173L470.934 78.8273L470.814 79.6872L453.417 77.2975L453.527 76.4477L454.477 76.5677C455.916 76.7676 456.946 76.6277 457.546 76.1377C458.156 75.6478 458.576 74.488 458.836 72.6483L461.995 49.602C462.205 48.0623 462.135 46.9324 461.785 46.2425C461.436 45.5327 460.486 45.0727 458.936 44.8628L457.876 44.7128L457.996 43.8629ZM433.42 67.3591L421.612 67.1792L420.102 70.4487C419.612 71.5385 419.372 72.4583 419.362 73.1782C419.342 74.138 419.712 74.8479 420.462 75.3179C420.912 75.5878 422.012 75.8078 423.762 75.9678L423.752 76.8376L412.543 76.6577L412.553 75.7978C413.763 75.6278 414.773 75.1279 415.553 74.318C416.353 73.5082 417.343 71.8085 418.523 69.2289L430.98 42.5232L431.46 42.5332L443.189 70.3487C444.308 73.0183 445.238 74.708 445.968 75.3979C446.538 75.9378 447.318 76.2477 448.348 76.3477L448.338 77.2076L432.03 76.9576L432.04 76.0978L432.71 76.1077C434.02 76.1277 434.95 75.9578 435.48 75.5878C435.85 75.3279 436.03 74.9379 436.04 74.438C436.05 74.1381 436.01 73.8281 435.91 73.4982C435.88 73.3582 435.64 72.7183 435.19 71.5985L433.42 67.3591ZM432.65 65.5095L427.791 53.9413L422.472 65.3595L432.65 65.5095ZM377.209 45.0727L404.985 42.9731L405.045 43.833C403.015 44.0529 401.745 44.4728 401.225 45.0627C400.715 45.6626 400.525 46.8725 400.665 48.7022L402.375 71.2485C402.485 72.6683 402.675 73.6581 402.925 74.1981C403.175 74.738 403.675 75.1579 404.435 75.4579C405.185 75.7578 406.194 75.8578 407.464 75.7678L408.274 86.4261L407.414 86.4961C406.994 83.6065 405.755 81.3269 403.705 79.6572C401.645 77.9875 398.946 77.2776 395.606 77.5375L386.448 78.2274C382.988 78.4874 380.279 79.5472 378.319 81.3969C376.349 83.2466 375.319 85.7562 375.229 88.9357L374.36 88.9957L373.56 78.3374C377.549 77.1876 380.249 74.1781 381.658 69.3288C383.058 64.4796 383.458 58.1007 382.858 50.2019C382.718 48.2822 382.288 47.0624 381.598 46.5225C380.889 45.9926 379.449 45.7926 377.279 45.9426L377.209 45.0727ZM393.217 46.0626L384.788 46.7025L385.008 49.572C385.318 53.6214 385.338 57.5707 385.088 61.4601C384.828 65.3395 384.318 68.409 383.548 70.6687C382.758 72.9383 381.648 74.8779 380.189 76.5077L392.147 75.5979C393.767 75.4779 394.706 75.2979 394.976 75.0479C395.256 74.8079 395.336 74.0681 395.246 72.8483L393.217 46.0626ZM343.525 53.2215L346.614 66.6193L347.264 66.4693C349.364 65.9894 350.723 64.9796 351.363 63.4598C351.993 61.94 352.153 59.8704 351.823 57.2708L352.763 57.0508L356.742 74.2681L355.793 74.478C355.173 72.6483 354.403 71.2086 353.513 70.1587C352.603 69.1089 351.703 68.469 350.783 68.249C349.854 68.029 348.614 68.099 347.034 68.459L349.174 77.6975C349.594 79.5072 349.914 80.597 350.164 80.967C350.414 81.3369 350.773 81.5969 351.263 81.7568C351.743 81.9168 352.443 81.8868 353.383 81.6768L355.353 81.2169C358.412 80.5171 360.712 79.2372 362.242 77.3875C363.771 75.5478 364.601 73.0882 364.731 69.9887L365.631 69.7788L366.561 80.567L338.175 87.116L337.985 86.2761L339.065 86.0262C340.015 85.8062 340.745 85.4563 341.245 84.9763C341.615 84.6564 341.845 84.1865 341.945 83.5866C342.025 83.1566 341.885 82.1068 341.495 80.447L336.496 58.7705C336.146 57.2708 335.896 56.3609 335.736 56.031C335.446 55.5011 335.046 55.1311 334.536 54.9311C333.816 54.6112 332.926 54.5712 331.866 54.8212L330.787 55.0711L330.587 54.2313L358.072 47.8823L360.312 57.6107L359.372 57.8207C358.362 55.5511 357.302 54.0013 356.223 53.1615C355.143 52.3216 353.773 51.8317 352.113 51.7017C351.143 51.6217 349.424 51.8616 346.944 52.4315L343.525 53.2215ZM315.659 93.7049L315.399 92.885L316.419 92.5551C317.989 92.0552 318.859 91.4153 319.029 90.6354C319.189 89.8355 318.989 88.5558 318.429 86.786L310.61 62.19L299.262 65.7994L307.07 90.3955C307.73 92.4751 308.4 93.6949 309.06 94.0448C309.72 94.4048 310.74 94.3648 312.11 93.9249L313.069 93.6249L313.329 94.4448L296.592 99.7639L296.322 98.9441L297.342 98.6141C298.762 98.1642 299.602 97.6043 299.892 96.9144C300.182 96.2245 300.002 94.8747 299.362 92.8451L292.623 71.6485C292.013 69.7188 291.403 68.529 290.783 68.069C290.163 67.6191 289.123 67.6291 287.654 68.0991L286.634 68.419L286.364 67.5991L322.178 56.221L322.438 57.0408L321.588 57.3108C320.088 57.7907 319.199 58.4006 318.919 59.1605C318.639 59.9104 318.809 61.2401 319.409 63.1298L326.147 84.3364C326.807 86.4161 327.477 87.6259 328.177 87.9659C328.877 88.3158 329.947 88.2558 331.387 87.8058L332.136 87.5659L332.396 88.3858L315.659 93.7049ZM249.22 106.493L253.819 114.662C254.719 116.261 255.379 117.221 255.809 117.521C256.239 117.821 256.779 117.961 257.418 117.931C258.048 117.901 259.038 117.501 260.368 116.751L260.798 117.511L245.84 125.92L245.42 125.17C246.78 124.4 247.63 123.76 247.97 123.23C248.31 122.7 248.47 122.18 248.43 121.66C248.4 121.141 247.93 120.081 247.03 118.481L236.272 99.354C235.362 97.7542 234.702 96.8044 234.272 96.4944C233.842 96.1945 233.322 96.0545 232.682 96.0745C232.043 96.1145 231.063 96.5045 229.713 97.2643L229.293 96.5045L242.111 89.2956C246.34 86.916 249.79 85.9661 252.469 86.4361C255.159 86.906 257.139 88.2658 258.408 90.5254C259.478 92.4351 259.808 94.4048 259.388 96.4345C258.968 98.4641 257.848 100.304 256.049 101.974C254.839 103.113 252.559 104.613 249.22 106.493ZM241.111 92.0752L248.27 104.813C248.77 104.573 249.14 104.383 249.39 104.243C251.149 103.243 252.229 101.954 252.589 100.364C252.949 98.7841 252.519 96.8844 251.279 94.6847C250.05 92.4951 248.67 91.1653 247.14 90.6854C245.62 90.2055 243.901 90.5054 242.001 91.5753L241.111 92.0752ZM222.884 128.949L213.216 135.718L213.895 139.258C214.145 140.427 214.485 141.307 214.895 141.897C215.445 142.687 216.165 143.047 217.045 142.987C217.565 142.947 218.585 142.477 220.105 141.587L220.604 142.297L211.416 148.716L210.916 148.006C211.796 147.166 212.326 146.176 212.486 145.057C212.656 143.927 212.466 141.967 211.906 139.188L206.357 110.252L206.747 109.982L232.553 125.65C235.022 127.16 236.762 127.979 237.772 128.119C238.542 128.219 239.351 128.009 240.251 127.489L240.751 128.199L227.383 137.548L226.893 136.838L227.433 136.448C228.503 135.698 229.163 135.018 229.373 134.418C229.523 133.988 229.443 133.569 229.163 133.159C228.983 132.909 228.773 132.679 228.503 132.469C228.393 132.369 227.823 131.989 226.803 131.349L222.884 128.949ZM221.174 127.909L210.466 121.37L212.836 133.748L221.174 127.909ZM164.913 144.787L186.04 126.64L186.61 127.299C185.1 128.679 184.32 129.759 184.25 130.549C184.2 131.329 184.77 132.419 185.96 133.808L200.698 150.966C201.627 152.046 202.357 152.725 202.877 153.015C203.407 153.295 204.057 153.345 204.847 153.135C205.627 152.935 206.507 152.415 207.467 151.586L214.435 159.694L213.786 160.264C211.736 158.185 209.386 157.085 206.747 156.955C204.097 156.825 201.507 157.855 198.958 160.044L191.999 166.023C189.359 168.283 187.81 170.743 187.32 173.392C186.83 176.052 187.49 178.681 189.299 181.291L188.64 181.861L181.671 173.752C184.21 170.453 184.61 166.433 182.861 161.694C181.121 156.955 177.661 151.576 172.502 145.567C171.252 144.117 170.183 143.377 169.303 143.357C168.423 143.347 167.143 144.037 165.483 145.447L164.913 144.787ZM178.391 136.098L171.982 141.607L173.862 143.797C176.502 146.866 178.871 150.036 180.961 153.325C183.06 156.595 184.46 159.374 185.18 161.654C185.89 163.944 186.15 166.173 185.94 168.343L195.029 160.534C196.258 159.474 196.918 158.764 196.988 158.404C197.058 158.045 196.698 157.405 195.898 156.475L178.391 136.098ZM147.916 175.762L140.367 168.623L140.997 167.963C141.987 168.643 142.727 168.723 143.227 168.193C143.457 167.953 143.737 167.413 144.067 166.583C144.967 164.394 146.096 162.564 147.476 161.104C149.846 158.594 152.305 157.245 154.835 157.045C157.375 156.855 159.454 157.525 161.074 159.054C161.824 159.764 162.434 160.664 162.894 161.744C163.344 162.824 163.504 164.064 163.374 165.483C163.244 166.883 162.564 168.713 161.344 170.942C164.243 168.753 166.803 167.723 169.053 167.843C171.292 167.963 173.132 168.703 174.562 170.063C175.802 171.232 176.632 172.692 177.031 174.452C177.431 176.212 177.271 178.051 176.532 179.981C175.822 181.901 174.462 183.92 172.462 186.03C170.542 188.06 168.743 189.409 167.063 190.069C165.393 190.729 163.474 190.939 161.324 190.679L161.304 189.219C164.693 189.259 167.253 188.35 168.993 186.52C170.423 185 171.062 183.34 170.902 181.541C170.742 179.741 169.873 178.091 168.293 176.602C167.093 175.462 165.773 174.752 164.374 174.452C162.974 174.172 161.754 174.282 160.734 174.802C159.714 175.312 158.464 176.312 156.975 177.811L155.385 176.302C155.795 175.902 156.135 175.552 156.395 175.272C157.994 173.582 158.654 171.942 158.374 170.353C158.115 168.763 157.085 167.123 155.285 165.423C153.565 163.804 151.996 163.004 150.566 163.034C149.136 163.054 147.956 163.564 147.016 164.553C145.736 165.903 145.237 167.493 145.497 169.343C145.757 171.172 146.816 173.062 148.646 174.982L147.916 175.762ZM124.02 213.746L126.77 210.236C129.729 206.457 132.549 204.237 135.218 203.567C137.888 202.897 140.337 203.437 142.557 205.177C144.077 206.367 145.037 207.817 145.467 209.546C145.876 211.276 145.846 213.006 145.357 214.735C144.867 216.465 143.637 218.585 141.667 221.104L130.529 235.332L129.849 234.792C131.109 233.132 131.709 231.913 131.649 231.123C131.589 230.333 130.859 229.383 129.449 228.273L111.812 214.465C109.912 212.976 108.592 212.256 107.863 212.316C107.153 212.366 106.123 213.206 104.793 214.855L104.113 214.315L114.811 200.648L115.491 201.178C114.522 202.447 113.992 203.377 113.892 203.957C113.792 204.547 113.842 205.067 114.032 205.497C114.222 205.927 114.971 206.657 116.281 207.687L124.02 213.746ZM125.75 215.095L133.758 221.374C135.028 222.354 136.058 222.884 136.848 222.934C137.638 222.984 138.408 222.544 139.158 221.584C140.347 220.064 140.737 218.515 140.307 216.925C139.887 215.345 138.898 213.946 137.358 212.736C135.868 211.576 134.338 210.946 132.779 210.856C131.219 210.766 129.959 211.056 129.019 211.726C128.089 212.376 126.99 213.506 125.75 215.095ZM159.504 196.908L160.194 197.448L149.366 211.276L148.676 210.746L149.356 209.876C150.006 209.056 150.356 208.316 150.406 207.687C150.456 207.057 150.336 206.527 150.046 206.097C149.756 205.667 148.986 204.967 147.746 203.997L130.229 190.289C128.979 189.309 128.129 188.73 127.689 188.55C127.249 188.37 126.71 188.39 126.05 188.61C125.41 188.82 124.77 189.339 124.14 190.139L123.47 190.999L122.78 190.469L133.608 176.642L134.298 177.171L133.618 178.031C132.969 178.861 132.619 179.601 132.569 180.231C132.519 180.861 132.639 181.391 132.929 181.811C133.219 182.241 133.988 182.94 135.218 183.91L152.745 197.628C153.985 198.608 154.845 199.188 155.275 199.368C155.725 199.548 156.265 199.528 156.925 199.308C157.565 199.088 158.204 198.578 158.834 197.778L159.504 196.908ZM137.388 245.67L136.958 246.42C130.639 244.281 126.07 245.68 123.25 250.62L108.582 250.22C107.033 250.17 106.093 250.2 105.753 250.29C105.093 250.49 104.453 251.1 103.813 252.129L113.762 257.808C115.181 258.618 116.321 258.808 117.171 258.378C117.791 258.048 118.551 257.119 119.421 255.589L120.171 256.019L111.472 271.276L110.712 270.846C111.612 269.197 111.992 267.987 111.862 267.217C111.702 266.347 110.832 265.457 109.262 264.557L89.6256 253.359C87.9658 252.409 86.776 251.959 86.0261 251.989C85.0463 252.049 84.1264 252.829 83.2566 254.349L82.9066 254.979L82.1468 254.549L90.8553 239.291L91.6052 239.721L91.3153 240.221C90.5054 241.641 90.2355 242.761 90.4954 243.561C90.7554 244.361 91.6252 245.181 93.105 246.03L101.864 251.02C102.863 249.27 103.423 248.24 103.533 247.94C104.033 246.74 104.073 245.63 103.663 244.601C103.303 243.711 102.333 242.491 100.724 240.921C99.124 239.361 97.9942 238.152 97.3343 237.302C96.1645 235.762 95.5246 234.272 95.3946 232.822C95.2846 231.553 95.6246 230.213 96.4144 228.813C97.1443 227.543 98.1142 226.673 99.314 226.214C100.574 225.744 101.844 225.864 103.113 226.583C103.973 227.083 104.523 227.753 104.743 228.603C104.963 229.453 104.833 230.303 104.343 231.163C103.403 232.803 101.954 233.132 99.9739 232.183C98.984 231.703 98.3141 231.753 97.9742 232.363C97.3043 233.522 98.3841 235.542 101.224 238.392C102.723 239.891 103.673 240.911 104.093 241.441C105.153 242.721 105.813 243.931 106.063 245.041C107.303 243.751 108.742 243.041 110.392 242.921C110.672 242.891 112.692 242.901 116.451 242.941L123.49 243.011C124.5 243.011 125.4 242.801 126.17 242.361C126.95 241.931 127.589 241.271 128.099 240.371L137.388 245.67ZM109.882 300.612L109.592 301.421C103.003 300.382 98.7341 302.541 96.8044 307.9L82.2767 310C80.747 310.22 79.8171 310.41 79.4972 310.56C78.8873 310.87 78.3574 311.58 77.8974 312.7L88.6757 316.599C90.2154 317.159 91.3653 317.149 92.1252 316.579C92.6851 316.149 93.275 315.099 93.8749 313.449L94.6847 313.739L88.7157 330.257L87.8958 329.967C88.5057 328.187 88.6757 326.927 88.4058 326.197C88.1058 325.358 87.096 324.638 85.3962 324.018L64.1396 316.329C62.3399 315.679 61.0802 315.439 60.3503 315.599C59.3904 315.819 58.6206 316.749 58.0306 318.389L57.7807 319.069L56.9708 318.779L62.9498 302.261L63.7597 302.551L63.5598 303.091C63.0098 304.641 62.9199 305.791 63.3198 306.521C63.7097 307.271 64.7096 307.93 66.3193 308.51L75.7978 311.94C76.4777 310.04 76.8576 308.93 76.9176 308.62C77.1975 307.35 77.0476 306.251 76.4677 305.311C75.9678 304.491 74.7979 303.461 72.9482 302.191C71.1085 300.911 69.7787 299.922 68.9889 299.192C67.5791 297.882 66.6893 296.522 66.3193 295.112C65.9894 293.873 66.0993 292.503 66.6392 290.993C67.1392 289.613 67.939 288.593 69.0489 287.934C70.2187 287.244 71.4885 287.154 72.8582 287.654C73.7881 287.994 74.438 288.563 74.8079 289.353C75.1679 290.163 75.1879 291.023 74.8479 291.953C74.208 293.723 72.8383 294.303 70.7186 293.703C69.6588 293.393 69.0189 293.563 68.7789 294.213C68.319 295.482 69.7288 297.272 73.0082 299.612C74.738 300.832 75.8578 301.671 76.3577 302.121C77.6175 303.201 78.4773 304.281 78.9173 305.341C79.9071 303.851 81.2069 302.911 82.8167 302.501C83.0866 302.421 85.0763 302.091 88.7857 301.491L95.7346 300.362C96.7344 300.192 97.5843 299.822 98.2742 299.262C98.964 298.712 99.484 297.942 99.8339 296.972L109.882 300.612ZM62.7799 366.941L63.5198 362.552C64.3096 357.812 65.7294 354.513 67.7491 352.653C69.7887 350.793 72.1883 350.094 74.9779 350.563C76.8776 350.883 78.4174 351.703 79.6172 353.023C80.807 354.333 81.5969 355.873 82.0068 357.622C82.3967 359.382 82.3267 361.832 81.7968 364.981L78.8073 382.798L77.9474 382.658C78.2674 380.589 78.2074 379.229 77.7775 378.569C77.3475 377.899 76.2577 377.419 74.488 377.119L52.4016 373.41C50.0219 373.01 48.5122 373 47.9023 373.4C47.2924 373.79 46.7925 375.02 46.4125 377.099L45.5627 376.959L48.4322 359.832L49.2921 359.982C49.0421 361.552 49.0121 362.632 49.2021 363.181C49.402 363.751 49.692 364.171 50.0619 364.461C50.4419 364.761 51.4517 365.041 53.0914 365.311L62.7799 366.941ZM64.9395 367.311L74.9779 368.991C76.5576 369.26 77.7175 369.23 78.4374 368.891C79.1572 368.561 79.6172 367.801 79.8171 366.601C80.1371 364.701 79.7371 363.151 78.6073 361.962C77.4775 360.772 75.9477 360.022 74.0181 359.692C72.1484 359.382 70.5086 359.562 69.0989 360.222C67.6791 360.892 66.7192 361.742 66.2093 362.781C65.6994 363.801 65.2695 365.311 64.9395 367.311ZM85.9261 335.206L86.776 335.356L83.8665 352.673L83.0166 352.533L83.1966 351.453C83.3665 350.413 83.3266 349.594 83.0666 349.024C82.8167 348.444 82.4567 348.034 81.9868 347.804C81.5368 347.564 80.527 347.314 78.9772 347.054L57.0308 343.365C55.4711 343.105 54.4512 343.005 53.9713 343.055C53.5014 343.105 53.0315 343.385 52.5615 343.885C52.1016 344.385 51.7816 345.144 51.6117 346.144L51.4317 347.224L50.5818 347.084L53.4914 329.757L54.3412 329.907L54.1613 330.987C53.9813 332.016 54.0313 332.836 54.2813 333.416C54.5412 333.986 54.9011 334.406 55.3611 334.636C55.821 334.876 56.8308 335.126 58.3806 335.386L80.3171 339.065C81.8768 339.335 82.9066 339.435 83.3766 339.385C83.8565 339.325 84.3264 339.055 84.7963 338.545C85.2562 338.045 85.5662 337.296 85.7362 336.286L85.9261 335.206ZM44.6028 386.748L53.6813 387.438L53.6214 388.297C51.4817 388.667 49.932 389.137 48.9721 389.707C48.0023 390.287 47.2024 391.117 46.5725 392.207C46.2326 392.807 45.9926 393.896 45.8726 395.466L45.6826 398.006L71.6784 399.976C73.4082 400.105 74.498 400.095 74.9479 399.945C75.3978 399.796 75.8078 399.446 76.1677 398.926C76.5376 398.406 76.7576 397.676 76.8276 396.726L76.9076 395.626L77.7675 395.696L76.4477 413.203L75.5778 413.143L75.6678 412.034C75.7378 411.064 75.6178 410.274 75.3179 409.654C75.1079 409.214 74.738 408.844 74.188 408.554C73.8081 408.354 72.7683 408.174 71.0686 408.054L45.0727 406.085L44.8928 408.514C44.7128 410.764 45.0727 412.433 45.9526 413.533C47.1824 415.063 49.0221 416.103 51.4717 416.673L51.3917 417.643L42.3132 416.953L44.6028 386.748ZM42.8231 426.891L51.9316 426.751L51.9516 427.621C49.8519 428.181 48.3522 428.791 47.4424 429.451C46.5325 430.111 45.8126 431.01 45.2927 432.15C45.0028 432.78 44.8628 433.89 44.8928 435.47L44.9328 438.009L70.9885 437.609C72.7283 437.579 73.8181 437.469 74.248 437.279C74.678 437.089 75.0479 436.71 75.3678 436.16C75.6878 435.6 75.8378 434.85 75.8278 433.9L75.8078 432.8L76.6676 432.79L76.9476 450.347L76.0777 450.357L76.0577 449.248C76.0477 448.288 75.8578 447.508 75.4978 446.918C75.2579 446.498 74.8479 446.168 74.278 445.928C73.8781 445.758 72.8183 445.678 71.1185 445.708L45.0527 446.108L45.0927 448.548C45.1227 450.807 45.6326 452.437 46.6125 453.447C47.9723 454.857 49.8919 455.727 52.3915 456.076L52.4016 457.036L43.293 457.186L42.8231 426.891ZM46.0326 469.184C46.3325 470.984 46.8224 472.094 47.4823 472.514C48.1522 472.944 49.282 473.024 50.8618 472.764L74.0081 468.874C75.7878 468.574 76.9076 468.115 77.3475 467.505C77.7875 466.895 77.8774 465.655 77.5875 463.775L78.4473 463.635L81.2569 480.353L80.397 480.493C80.1771 479.163 79.9071 478.233 79.5972 477.733C79.2772 477.223 78.8373 476.893 78.2874 476.733C77.7375 476.583 76.8076 476.603 75.4978 476.823L49.392 481.212L50.7318 489.201L60.6702 487.531C64.8295 486.831 68.019 486.392 70.2287 486.242C72.4383 486.072 74.608 486.292 76.7176 486.891C78.8273 487.491 80.507 488.431 81.7268 489.721C82.9466 491.011 83.7165 492.531 84.0164 494.31C84.2764 495.91 84.0765 497.23 83.3766 498.25C82.6767 499.27 81.7068 499.889 80.467 500.099C79.4272 500.279 78.5373 500.149 77.7875 499.719C77.0376 499.29 76.5676 498.56 76.3977 497.54C76.0877 495.66 77.0776 494.42 79.3772 493.83C80.417 493.57 80.867 493.07 80.737 492.341C80.567 491.311 79.6871 490.341 78.1174 489.411C76.5377 488.471 74.498 488.021 72.0184 488.051C69.5288 488.091 65.9893 488.491 61.3901 489.261L55.1011 490.321C53.3014 490.621 52.1216 490.931 51.5617 491.261C50.9918 491.581 50.6218 492.081 50.4619 492.751C50.2919 493.43 50.3319 494.57 50.5619 496.19L49.712 496.34L45.1727 469.324L46.0326 469.184ZM53.4714 512.817C53.9313 513.847 54.4812 514.567 55.1311 515.007C55.881 515.517 58.0706 516.237 61.71 517.177L75.5378 520.796L77.1776 520.326L74.9679 512.697L76.7776 512.167L78.9873 519.796L83.3865 518.516C84.7163 518.136 85.5062 517.876 85.7462 517.766C86.5261 517.377 87.016 516.787 87.2159 515.987C87.3859 515.387 87.3559 514.657 87.1059 513.787L86.576 511.977L87.4059 511.728L92.675 529.875L91.8452 530.115L91.3553 528.425C91.0853 527.505 90.6954 526.805 90.1954 526.315C89.8255 525.965 89.3556 525.765 88.7557 525.675C88.3058 525.615 87.2659 525.825 85.6462 526.295L81.2469 527.575L83.4565 535.194L81.6468 535.724L79.4372 528.095L79.1372 528.185L67.4191 539.853C65.5994 541.663 64.5696 542.742 64.3296 543.092C63.3498 544.422 63.0698 545.782 63.4498 547.182L62.6199 547.422L58.1106 531.894L58.9405 531.654L59.1505 532.344C59.6404 534.034 60.3103 534.754 61.1701 534.504C61.72 534.344 62.9998 533.284 64.9995 531.314L73.9781 522.336L62.5599 519.316C59.6704 518.596 57.8507 518.336 57.1108 518.556C56.021 518.866 55.771 520.236 56.3409 522.686L55.5111 522.926L52.6415 513.067L53.4714 512.817ZM113.142 559.48L113.542 560.24C108.363 564.439 107.103 569.048 109.782 574.077L101.614 586.265C100.754 587.545 100.274 588.365 100.164 588.695C99.9839 589.365 100.164 590.225 100.684 591.325L110.792 585.935C112.242 585.166 113.012 584.306 113.092 583.356C113.152 582.656 112.772 581.526 111.942 579.966L112.702 579.557L120.96 595.054L120.201 595.464C119.291 593.824 118.461 592.864 117.741 592.564C116.921 592.234 115.701 592.495 114.112 593.344L94.1548 603.973C92.4751 604.872 91.4452 605.642 91.0753 606.292C90.5954 607.152 90.7754 608.342 91.5952 609.892L91.9352 610.521L91.1753 610.931L82.9166 595.424L83.6765 595.024L83.9464 595.534C84.7163 596.974 85.5162 597.814 86.3261 598.013C87.1459 598.224 88.3058 597.924 89.8155 597.114L98.7041 592.374C97.7542 590.595 97.1843 589.575 96.9944 589.325C96.2445 588.255 95.3246 587.635 94.2348 587.435C93.295 587.255 91.7452 587.435 89.5656 587.955C87.3859 588.465 85.7562 588.785 84.6863 588.885C82.7667 589.055 81.1669 588.805 79.8671 588.135C78.7273 587.555 77.7775 586.545 77.0276 585.136C76.3377 583.836 76.1177 582.556 76.3677 581.306C76.6376 579.976 77.4175 578.967 78.7073 578.287C79.5872 577.817 80.447 577.717 81.2769 577.987C82.1268 578.247 82.7666 578.817 83.2366 579.687C84.1264 581.356 83.6365 582.756 81.7668 583.926C80.827 584.506 80.527 585.096 80.847 585.706C81.4769 586.895 83.7565 587.055 87.6859 586.185C89.7555 585.716 91.1253 585.446 91.7952 585.376C93.4449 585.176 94.8147 585.256 95.8945 585.635C95.4546 583.896 95.6346 582.306 96.4045 580.846C96.5344 580.586 97.6143 578.887 99.6539 575.727L103.473 569.808C104.013 568.958 104.313 568.088 104.353 567.199C104.403 566.319 104.183 565.409 103.703 564.509L113.142 559.48ZM123.72 617.58L130.139 627.479L133.698 626.919C134.878 626.709 135.778 626.409 136.378 626.009C137.188 625.489 137.568 624.789 137.538 623.909C137.518 623.379 137.088 622.35 136.248 620.8L136.968 620.33L143.077 629.729L142.347 630.208C141.537 629.299 140.557 628.729 139.448 628.529C138.328 628.329 136.368 628.449 133.568 628.909L104.453 633.438L104.193 633.038L120.761 607.792C122.35 605.382 123.23 603.673 123.4 602.673C123.54 601.913 123.36 601.083 122.86 600.173L123.59 599.703L132.469 613.381L131.739 613.851L131.379 613.291C130.659 612.191 129.999 611.521 129.409 611.281C128.989 611.121 128.559 611.181 128.139 611.451C127.879 611.621 127.639 611.831 127.429 612.091C127.329 612.191 126.93 612.751 126.25 613.741L123.72 617.58ZM122.61 619.25L115.711 629.729L128.159 627.789L122.61 619.25ZM141.167 666.283L132.989 672.682L132.419 671.962C133.239 671.082 133.428 670.362 132.989 669.792C132.779 669.522 132.289 669.162 131.519 668.712C129.479 667.502 127.849 666.113 126.61 664.533C124.48 661.813 123.51 659.184 123.69 656.654C123.88 654.115 124.85 652.155 126.6 650.785C127.419 650.145 128.399 649.675 129.529 649.385C130.669 649.095 131.919 649.115 133.299 649.465C134.668 649.805 136.368 650.745 138.398 652.285C136.658 649.095 136.028 646.406 136.478 644.206C136.938 642.006 137.938 640.297 139.488 639.077C140.837 638.027 142.407 637.427 144.207 637.287C145.996 637.157 147.806 637.587 149.596 638.597C151.386 639.597 153.185 641.247 154.975 643.526C156.695 645.736 157.765 647.716 158.164 649.465C158.564 651.225 158.494 653.145 157.915 655.234L156.475 655.034C157.015 651.695 156.495 649.025 154.935 647.036C153.655 645.396 152.105 644.516 150.306 644.406C148.496 644.296 146.736 644.906 145.027 646.256C143.717 647.276 142.817 648.465 142.327 649.815C141.837 651.155 141.767 652.375 142.117 653.465C142.477 654.544 143.277 655.924 144.537 657.624L142.817 658.974C142.477 658.514 142.187 658.124 141.947 657.824C140.517 655.994 138.988 655.094 137.378 655.124C135.768 655.144 133.988 655.924 132.039 657.454C130.179 658.914 129.159 660.343 128.969 661.763C128.779 663.183 129.109 664.423 129.949 665.503C131.099 666.962 132.599 667.692 134.458 667.722C136.308 667.732 138.328 666.972 140.507 665.443L141.167 666.283ZM167.383 672.981L175.582 681.47L178.971 680.24C180.091 679.8 180.911 679.331 181.431 678.831C182.121 678.171 182.361 677.401 182.161 676.541C182.041 676.031 181.421 675.101 180.301 673.741L180.921 673.141L188.71 681.2L188.09 681.8C187.12 681.07 186.05 680.7 184.92 680.72C183.78 680.73 181.881 681.23 179.221 682.22L151.516 692.238L151.186 691.888L162.604 663.943C163.704 661.273 164.243 659.424 164.224 658.414C164.204 657.634 163.874 656.864 163.214 656.054L163.834 655.454L175.162 667.182L174.542 667.782L174.082 667.302C173.172 666.363 172.392 665.833 171.762 665.713C171.312 665.633 170.912 665.773 170.553 666.122C170.333 666.333 170.133 666.582 169.973 666.882C169.893 667.002 169.603 667.622 169.133 668.732L167.383 672.981ZM166.623 674.831L161.844 686.429L173.692 682.15L166.623 674.831ZM198.508 676.951L199.188 677.491C196.138 683.43 196.858 688.149 201.348 691.658L198.808 706.116C198.548 707.636 198.438 708.576 198.468 708.926C198.578 709.606 199.088 710.325 200.018 711.115L207.077 702.097C208.086 700.807 208.436 699.707 208.136 698.807C207.896 698.137 207.087 697.258 205.697 696.168L206.237 695.488L220.064 706.316L219.535 706.996C218.035 705.866 216.895 705.316 216.105 705.346C215.225 705.376 214.215 706.106 213.106 707.526L199.168 725.323C197.988 726.833 197.368 727.943 197.288 728.693C197.198 729.672 197.848 730.692 199.218 731.772L199.788 732.212L199.258 732.892L185.43 722.064L185.96 721.384L186.41 721.744C187.7 722.753 188.77 723.193 189.589 723.043C190.429 722.903 191.369 722.164 192.419 720.814L198.638 712.885C197.038 711.635 196.108 710.935 195.828 710.775C194.709 710.115 193.619 709.916 192.539 710.165C191.609 710.395 190.269 711.175 188.48 712.535C186.7 713.885 185.34 714.845 184.4 715.365C182.711 716.294 181.141 716.714 179.691 716.634C178.411 716.564 177.131 716.025 175.872 715.045C174.712 714.135 174.002 713.055 173.722 711.805C173.432 710.475 173.742 709.246 174.642 708.096C175.252 707.316 175.992 706.866 176.871 706.776C177.741 706.676 178.561 706.936 179.351 707.546C180.831 708.706 180.951 710.185 179.721 712.015C179.091 712.915 179.061 713.585 179.601 714.015C180.661 714.845 182.811 714.065 186.05 711.675C187.75 710.415 188.89 709.616 189.479 709.276C190.899 708.426 192.189 707.946 193.329 707.856C192.229 706.446 191.739 704.916 191.859 703.267C191.869 702.977 192.169 700.987 192.759 697.278L193.849 690.319C193.999 689.319 193.919 688.399 193.599 687.569C193.289 686.739 192.719 686.009 191.909 685.369L198.508 676.951ZM421.072 168.493C430.521 165.623 444.018 178.961 435.6 192.549C428.691 203.697 411.294 200.618 409.054 186.4C407.514 176.622 412.683 171.042 421.072 168.493ZM302.291 670.372C332.016 651.965 320.228 606.632 282.634 608.582C265.887 609.452 250.62 627.189 253.449 645.346C254.989 655.224 259.968 664.273 267.347 668.502C270.456 670.292 271.096 671.292 273.996 672.542C274.536 672.771 274.696 672.851 274.716 672.871C274.786 672.891 274.936 672.931 275.246 673.031C279.695 674.451 288.673 675.451 293.493 674.091C294.332 673.841 295.482 673.541 296.902 673.181C298.412 672.802 297.572 673.111 298.622 672.621L302.291 670.372ZM396.566 650.815C401.235 634.588 393.757 619.4 379.769 611.751L376.969 610.402C376.159 610.122 374.42 610.072 373.77 609.722C373.47 609.562 375.519 609.332 372.02 608.842C363.051 607.592 355.393 608.592 347.594 613.241C332.026 622.52 327.737 644.476 337.156 659.194L342.795 666.112L355.883 673.361C373.1 678.661 391.577 668.152 396.566 650.815ZM516.497 646.546C517.397 640.417 516.957 636.897 515.487 631.888C513.097 623.739 510.698 621.38 505.998 616.711C504.459 615.191 503.469 614.311 501.249 613.081C498.34 611.451 493.4 609.112 489.391 608.692C455.227 605.152 441.149 641.727 458.746 662.803L463.555 667.612L463.865 667.902C466.955 670.672 475.113 674.021 479.153 674.521C489.241 675.751 498.5 672.342 504.719 667.332C510.358 662.803 515.177 655.464 516.497 646.546ZM554.151 609.102C548.332 612.021 542.273 613.191 536.164 622.12C514.517 653.775 552.881 689.099 581.296 669.002C596.654 658.144 600.793 638.377 589.725 622.31C587.075 618.47 585.436 617.051 581.666 614.111C578.307 611.481 574.497 610.072 570.028 608.982C567.898 608.462 555.8 608.272 554.151 609.102ZM531.834 503.319C531.324 533.234 532.154 565.559 531.884 595.914L582.436 595.754L582.396 447.998C579.227 448.978 582.796 447.168 578.817 450.807C571.438 457.546 554.071 477.033 545.432 485.772C543.532 487.681 541.443 490.021 539.353 492.251C532.994 499.05 531.924 498.23 531.834 503.319ZM492.77 538.593L453.277 591.285C452.057 592.844 451.247 593.484 450.807 595.824L500.329 595.724C500.499 584.716 500.399 573.687 500.399 562.669C500.399 559.71 501.339 533.044 499.529 530.604C497.34 531.544 494.13 536.643 492.77 538.593ZM346.424 534.484L346.584 595.734C360.282 596.284 382.368 595.874 396.226 595.794C395.616 593.314 395.326 593.684 393.387 590.975C392.287 589.415 391.237 588.015 390.297 586.795L350.843 533.994C349.434 532.064 349.134 531.294 347.354 530.625C346.234 532.144 346.464 532.024 346.424 534.484ZM314.999 595.824L315.089 505.159C315.089 498.23 314.429 499.569 310.77 495.65L286.204 469.884C282.804 466.375 268.087 449.108 264.497 447.938L264.477 589.035L264.527 595.914L314.999 595.824ZM554.051 351.423H313.209C298.052 351.423 279.855 349.744 267.457 356.982C263.887 359.072 261.028 362.801 259.288 366.301C251.04 382.968 263.108 406.264 274.346 419.462L323.308 473.504L325.328 475.683L354.083 506.228C356.872 509.198 359.822 512.257 362.561 515.137C373.78 526.945 399.576 552.211 411.524 560.81L412.953 561.799L413.983 562.579C418.063 565.749 423.402 568.418 429.461 567.609L428.831 567.169C432.8 566.579 430.531 566.859 433.81 564.749L434.57 564.319L444.758 556.41L482.442 518.646C492.441 508.108 503.219 494.91 511.857 485.732L523.456 472.134L523.736 471.824C526.575 468.584 528.915 465.875 531.514 462.815L569.938 415.633C572.408 412.204 575.127 408.974 577.447 405.725C582.446 398.736 586.715 392.807 589.195 383.308C592.214 371.75 588.715 362.012 582.546 356.842C575.467 350.893 565.189 351.423 554.051 351.423ZM375.249 434.76C370.93 430.061 367.421 426.561 365.711 420.242C360.862 402.195 385.418 406.534 398.876 406.534H470.774C472.274 406.534 475.193 406.465 476.563 406.764L477.393 407.034C481.182 408.574 482.592 415.123 481.102 418.893C478.953 424.352 470.514 434.53 466.105 440.019L462.895 444.028L462.635 444.358L462.095 444.988C461.636 445.528 461.096 446.068 460.666 446.518C456.386 450.887 453.657 454.597 449.427 459.256L437.859 471.614C435.77 473.834 434.41 475.333 431.72 477.493C424.721 483.112 424.382 485.842 410.054 471.834C401.835 463.785 394.816 456.166 386.608 447.338C385.548 446.198 384.758 445.368 383.738 444.238L382.308 442.599L375.249 434.76ZM442.839 250.38C399.876 240.951 361.102 263.587 345.324 299.442C341.985 307.03 337.086 323.498 337.966 334.426L508.768 334.386C509.278 321.158 505.398 307.69 501.199 298.612C489.271 272.796 471.084 259.808 447.048 251.519C445.828 251.1 444.018 250.64 442.839 250.38ZM362.472 156.085C360.722 166.253 368.87 175.922 374.81 182.941L404.675 218.985C408.744 223.544 420.272 238.712 426.761 235.922C430.701 234.212 449.008 211.916 453.317 206.187L454.627 204.497C461.236 196.038 482.202 169.053 484.112 161.274C485.472 155.725 484.172 149.476 478.883 147.836C475.713 146.856 399.506 147.456 393.487 147.456C387.058 147.456 373.14 146.476 368.271 148.576C364.941 150.006 363.151 152.156 362.472 156.085ZM417.923 766.486C415.573 769.576 414.033 774.585 414.023 774.585C413.993 774.495 413.913 774.885 413.803 775.015C410.644 774.855 412.363 774.535 409.534 774.035C397.366 771.875 377.369 771.686 367.831 778.185C366.061 779.394 363.561 781.124 361.862 782.974C358.682 786.443 356.093 791.752 356.453 798.731C358.802 798.701 359.532 797.051 361.752 796.492C367.861 794.932 366.791 800.901 378.429 801.611C391.477 802.421 392.797 796.472 389.157 786.403L391.437 785.053C398.366 782.804 409.764 785.043 416.133 791.262C417.353 792.452 418.213 793.662 419.422 795.222C422.472 799.171 423.492 802.201 424.592 803.55C428.001 798.351 429.171 794.222 435.39 789.363C441.189 784.833 446.788 784.114 455.746 784.653L458.566 785.733C458.916 785.853 459.426 786.313 459.526 786.153C459.616 786.003 459.856 786.293 459.996 786.403C456.356 797.021 458.236 802.971 471.964 801.551C476.313 801.101 480.053 798.991 483.002 796.851C487.241 793.772 488.831 798.751 492.601 798.711C493.17 790.592 489.441 784.354 484.812 780.674C479.643 776.565 473.894 774.305 465.825 773.285L465.925 772.945C460.256 772.495 454.807 772.565 449.128 772.775C444.198 772.955 438.799 775.065 434.77 774.855C434.02 772.675 434.47 772.055 433.38 769.866C432.84 768.776 432.96 769.026 432.21 768.026L429.421 764.857C426.351 761.457 427.471 762.907 424.592 760.587L423.492 761.327L422.452 762.077C421.622 762.727 422.362 762.137 421.472 762.897L420.822 763.467C419.552 764.567 418.872 765.227 417.923 766.486ZM424.542 0C541.773 0 647.905 47.5124 724.733 124.34C801.561 201.168 849.073 307.3 849.073 424.531C849.073 541.763 801.561 647.895 724.733 724.723C647.905 801.551 541.773 849.073 424.542 849.073C307.31 849.073 201.178 801.551 124.35 724.723C47.5223 647.895 0 541.763 0 424.531C0 307.3 47.5223 201.168 124.35 124.34C201.178 47.5124 307.31 0 424.542 0ZM712.725 136.348C638.977 62.5899 537.083 16.9773 424.542 16.9773C312 16.9773 210.106 62.5899 136.358 136.348C62.5999 210.096 16.9773 311.99 16.9773 424.531C16.9773 537.083 62.5999 638.967 136.358 712.725C210.106 786.473 312 832.096 424.542 832.096C537.083 832.096 638.977 786.473 712.725 712.725C786.483 638.967 832.096 537.083 832.096 424.531C832.096 311.99 786.483 210.096 712.725 136.348ZM643.386 205.687C587.385 149.676 510.008 115.031 424.542 115.031C339.075 115.031 261.698 149.676 205.687 205.687C149.686 261.688 115.041 339.065 115.041 424.531C115.041 509.998 149.686 587.375 205.687 643.386C261.698 699.397 339.075 734.032 424.542 734.032C510.008 734.032 587.385 699.397 643.386 643.386C699.397 587.375 734.042 509.998 734.042 424.531C734.042 339.065 699.397 261.688 643.386 205.687Z" fill="#287878"/>
</svg>
