<svg width="162" height="40" viewBox="0 0 162 40" fill="none" xmlns="http://www.w3.org/2000/svg">
<path d="M14.6617 4.21338L1.24794 26.5301C-2.20867 32.3026 1.91863 39.6728 8.67708 39.6728H35.5045C42.263 39.6728 46.3903 32.3026 42.9337 26.5301L29.5199 4.21338C26.1149 -1.40446 18.0151 -1.40446 14.6617 4.21338ZM27.869 5.24418L41.3343 27.664C43.2432 30.8595 40.9732 34.8796 37.2586 34.8796H10.328C6.61343 34.8796 4.34341 30.8595 6.25229 27.664L19.7176 5.24418C21.5749 2.15179 26.0117 2.15179 27.869 5.24418Z" fill="#DAAB6B"/>
<path d="M22.5551 9.88286L13.5782 24.7779C12.1852 27.0972 13.8361 29.9834 16.5189 29.9834H34.4211C37.1038 29.9834 38.7547 27.0456 37.3617 24.7779L28.4365 9.88286C27.0951 7.66665 23.8964 7.66665 22.5551 9.88286ZM28.3849 13.4391L34.2147 23.1801C34.7306 24.0563 34.1115 25.1902 33.0797 25.1902H21.4201C20.3882 25.1902 19.7175 24.0563 20.2851 23.1801L26.1149 13.4391C26.6308 12.5629 27.869 12.5629 28.3849 13.4391Z" fill="#DAAB6B"/>
<path d="M64.3956 10.192C67.0784 10.192 69.2452 11.1198 70.9993 13.0267C72.805 14.9337 73.682 17.253 73.682 20.0361C73.682 22.7678 72.805 25.1386 70.9993 27.0456C69.2452 28.901 67.0268 29.8287 64.344 29.8287C61.9192 29.8287 59.9072 28.8495 58.3594 26.8909V29.3649H53.9226V3.18262H58.411V13.0783C60.062 11.1198 62.0224 10.192 64.3956 10.192ZM69.142 19.9846C69.142 18.3869 68.6261 17.0468 67.6459 15.9645C66.614 14.8822 65.3243 14.3152 63.7249 14.3152C62.074 14.3152 60.7842 14.8822 59.804 15.9645C58.7722 17.0468 58.3079 18.3869 58.3079 19.9846C58.3079 21.5823 58.8238 22.9224 59.804 24.0563C60.8358 25.1386 62.1256 25.654 63.7249 25.654C65.3243 25.654 66.614 25.1386 67.6459 24.0563C68.6261 22.9224 69.142 21.5308 69.142 19.9846Z" fill="#27AE60"/>
<path d="M86.1672 29.7772C83.2781 29.7772 80.9049 28.8495 79.0476 27.0456C77.1903 25.1902 76.3132 22.8709 76.3132 20.0362C76.3132 17.2015 77.2419 14.8307 79.0992 13.0268C81.008 11.1713 83.3812 10.2952 86.3219 10.2952C88.2308 10.2952 89.9849 10.759 91.5327 11.6352C93.0804 12.5629 94.2154 13.7999 94.9893 15.3976L91.3263 17.3561C90.1397 15.3976 88.4888 14.4184 86.3735 14.4184C84.7742 14.4184 83.4328 14.9337 82.3494 16.0161C81.266 17.0984 80.7501 18.4385 80.7501 20.0362C80.7501 21.6339 81.266 22.974 82.2978 24.0563C83.3296 25.1386 84.6194 25.654 86.2188 25.654C87.2506 25.654 88.2308 25.3963 89.1595 24.8294C90.0881 24.314 90.8104 23.5924 91.2231 22.7163L94.8861 24.8294C94.0606 26.3241 92.874 27.561 91.3263 28.4372C89.8302 29.3134 88.076 29.7772 86.1672 29.7772Z" fill="#27AE60"/>
<path d="M106.855 29.7772C103.966 29.7772 101.593 28.8495 99.7355 27.0456C97.8783 25.1902 97.0012 22.8709 97.0012 20.0362C97.0012 17.2015 97.9299 14.8307 99.7871 13.0268C101.696 11.1713 104.069 10.2952 107.01 10.2952C108.919 10.2952 110.673 10.759 112.221 11.6352C113.768 12.5629 114.903 13.7999 115.677 15.3976L112.014 17.3561C110.828 15.3976 109.177 14.4184 107.062 14.4184C105.462 14.4184 104.121 14.9337 103.037 16.0161C101.954 17.0984 101.438 18.4385 101.438 20.0362C101.438 21.6339 101.954 22.974 102.986 24.0563C104.018 25.1386 105.307 25.654 106.907 25.654C107.939 25.654 108.919 25.3963 109.847 24.8294C110.776 24.314 111.498 23.5924 111.911 22.7163L115.574 24.8294C114.749 26.3241 113.562 27.561 112.014 28.4372C110.518 29.3134 108.764 29.7772 106.855 29.7772Z" fill="#27AE60"/>
<path d="M120.682 29.8801C119.908 29.8801 119.289 29.6224 118.773 29.107C118.257 28.5916 117.999 27.9732 117.999 27.2001C117.999 26.4785 118.257 25.86 118.773 25.3446C119.289 24.8292 119.96 24.5715 120.682 24.5715C121.404 24.5715 122.023 24.8292 122.539 25.3446C123.055 25.86 123.313 26.4785 123.313 27.2001C123.313 27.9732 123.055 28.5916 122.539 29.107C122.075 29.6224 121.456 29.8801 120.682 29.8801Z" fill="#27AE60"/>
<path d="M145.033 29.3648H139.461L133.064 21.2216L131.671 22.4585V29.3648H127.131V3.18262H131.619V17.3561L138.842 10.6559H144.568L136.107 18.3869L145.033 29.3648Z" fill="#27AE60"/>
<path d="M161.49 13.6453L151.894 25.6026H161.8V29.365H145.755V26.3241L155.454 14.4184H146.271V10.656H161.49V13.6453V13.6453Z" fill="#27AE60"/>
</svg>
